<svg xmlns="http://www.w3.org/2000/svg" xmlns:xlink="http://www.w3.org/1999/xlink" width="59.357" height="75" viewBox="0 0 59.357 75">
  <defs>
    <clipPath id="clip-path">
      <rect id="Rectangle_6063" data-name="Rectangle 6063" width="59.357" height="75" fill="none"/>
    </clipPath>
  </defs>
  <g id="Group_8172" data-name="Group 8172" transform="translate(-1328 -847)">
    <g id="Group_8142" data-name="Group 8142" transform="translate(1328 847)" clip-path="url(#clip-path)">
      <path id="Path_12683" data-name="Path 12683" d="M18.538,5.035a18.4,18.4,0,0,0-3.067,1.9c-2.883,2.747-5.686,5.579-8.476,8.422A6.434,6.434,0,0,0,5.134,20q-.01,25.039,0,50.079c0,2.227,1.168,3.327,3.51,3.335,6.781.024,13.563.018,20.345.025.285,0,.648-.108.838.027a13.578,13.578,0,0,1,1.335,1.207c-.442.455-.853,1.257-1.333,1.3-1.787.165-3.6.087-5.4.088-5.264,0-10.528.009-15.792-.008-3.892-.012-6.12-2.182-6.125-6.072Q2.483,45.154,2.5,20.328a9.862,9.862,0,0,1,3.2-7.475c2.535-2.424,4.986-4.938,7.45-7.437A9.4,9.4,0,0,1,20.157,2.5c11.145.018,22.289,0,33.434.013,3.81,0,6.017,2.183,6.027,6.01.028,10.2.011,20.392.009,30.588,0,.284.075.645-.066.835-.335.451-.849,1.2-1.164,1.138a2.393,2.393,0,0,1-1.309-1.177c-.208-.359-.064-.926-.064-1.4q0-14.725,0-29.45c0-2.922-.987-3.9-3.949-3.906-9.959-.006-19.918.022-29.877-.03-1.382-.007-1.926.291-1.868,1.8.118,3.078.045,6.164.024,9.246-.022,3.263-1.836,5.138-5.085,5.214-2.227.052-4.458.007-6.687.021-.924.006-1.668-.313-1.686-1.308s.727-1.337,1.649-1.337c2.182,0,4.364.016,6.544-.014,1.8-.025,2.632-.8,2.658-2.6.047-3.271.017-6.544.008-9.816a11.126,11.126,0,0,0-.214-1.286" transform="translate(-1.789 -1.789)" fill="#1d7b82"/>
      <path id="Path_12684" data-name="Path 12684" d="M25.249,75c-.435,0-.868,0-1.3-.009s-.86-.009-1.29-.009H19.857c-4.263,0-8.672,0-13.008-.009C2.575,74.961.021,72.425.015,68.191,0,58.881,0,49.416,0,40.262Q.006,29.4,0,18.54a10.53,10.53,0,0,1,3.417-7.99C5.6,8.464,7.759,6.271,9.847,4.15l1.005-1.021A10.18,10.18,0,0,1,18.35,0h.02q8.844.014,17.688.007,7.873,0,15.746,0c4.207.005,6.726,2.517,6.737,6.719.02,7.636.017,15.4.013,22.907l0,7.683c0,.058,0,.12.009.183a1.557,1.557,0,0,1-.215,1.077l-.09.122c-.515.7-1.048,1.424-1.774,1.291a3.105,3.105,0,0,1-1.8-1.52,2.317,2.317,0,0,1-.181-1.386c.011-.125.022-.25.022-.369v-11.6q0-8.924,0-17.848c0-2.536-.667-3.194-3.238-3.195q-4.45,0-8.9,0c-6.875,0-13.986.006-20.98-.031a1.675,1.675,0,0,0-1.016.169c-.049.051-.162.241-.137.89.094,2.443.067,4.922.042,7.32q-.01.979-.018,1.958c-.025,3.677-2.132,5.835-5.78,5.92-1.393.032-2.805.027-4.171.022-.842,0-1.685-.007-2.527,0H7.768c-1.464,0-2.351-.748-2.374-2.006a1.912,1.912,0,0,1,.521-1.428,2.473,2.473,0,0,1,1.834-.633h.005l1.378,0c1.691,0,3.439.007,5.155-.016,1.443-.02,1.936-.5,1.956-1.9.037-2.568.026-5.183.015-7.712l-.007-2.093a1.221,1.221,0,0,0-.019-.175l-.289.157a8.25,8.25,0,0,0-1.772,1.146c-2.989,2.848-5.934,5.832-8.46,8.406a5.71,5.71,0,0,0-1.656,4.139c-.006,15.2-.012,32.863,0,50.078,0,1.833.84,2.617,2.8,2.625,4.836.017,9.754.019,14.51.021l5.832,0h0a1.949,1.949,0,0,0,.2-.017,1.447,1.447,0,0,1,1.047.174,8.706,8.706,0,0,1,1.051.922c.119.116.237.233.359.345a.711.711,0,0,1,.025,1.017,5.168,5.168,0,0,0-.356.434,2.22,2.22,0,0,1-1.422,1.08c-.951.088-1.912.109-2.859.109m-2.587-1.44c.435,0,.87,0,1.3.009,1.311.013,2.666.027,3.97-.09a.4.4,0,0,0,.043-.033c-.007-.378-.011-.55-.018-.928-.08-.07-.161-.136-.242-.2-.049,0-.114.01-.162.015a3.292,3.292,0,0,1-.353.024h0l-5.832,0c-4.757,0-9.676,0-14.515-.021-2.719-.01-4.218-1.447-4.22-4.046-.013-17.216-.007-34.876,0-50.079A7.182,7.182,0,0,1,4.7,13.072c2.534-2.581,5.489-5.575,8.494-8.439a9.374,9.374,0,0,1,2.076-1.368c.36-.195.732-.4,1.112-.627l.893-.542.177,1.03c.047.275.088.484.122.651a3.86,3.86,0,0,1,.1.753l.007,2.091c.011,2.535.021,5.157-.015,7.738-.031,2.162-1.162,3.273-3.359,3.3-1.728.023-3.482.019-5.178.016l-1.378,0h0a1.232,1.232,0,0,0-.821.208c-.029.03-.118.12-.113.4,0,.243.011.609.946.609h.024c.847-.006,1.694,0,2.542,0,1.356,0,2.759.011,4.132-.022,2.853-.066,4.371-1.625,4.391-4.508q.006-.981.018-1.963c.025-2.381.05-4.843-.042-7.251a2.562,2.562,0,0,1,.537-1.934,2.678,2.678,0,0,1,2.046-.6c6.989.037,14.1.034,20.972.031q4.451,0,8.9,0c3.352,0,4.659,1.3,4.66,4.617q0,8.924,0,17.849v11.6c0,.167-.013.33-.026.487a2.031,2.031,0,0,0,0,.561,2.351,2.351,0,0,0,.663.756,7.888,7.888,0,0,0,.527-.662l.04-.054c0-.058,0-.148-.009-.213-.006-.093-.011-.186-.011-.272l0-7.684c0-7.507.008-15.269-.013-22.9-.009-3.414-1.9-5.3-5.316-5.3q-7.872-.009-15.744,0-8.844,0-17.69-.007H18.35a8.69,8.69,0,0,0-6.483,2.7l-1.005,1.02C8.766,7.276,6.6,9.477,4.4,11.579a9.177,9.177,0,0,0-2.977,6.96q.007,10.862,0,21.723c0,9.153,0,18.618.01,27.927,0,3.5,1.877,5.351,5.416,5.362,4.333.013,8.739.012,13,.009h2.805ZM57.2,37.733v0Z" transform="translate(-0.001)" fill="#1d7b82"/>
      <path id="Path_12685" data-name="Path 12685" d="M123.816,165.568a15.794,15.794,0,1,1-16.24-15.668,15.748,15.748,0,0,1,16.24,15.668M108.15,152.575a13.146,13.146,0,1,0,13.062,13.174,13.12,13.12,0,0,0-13.062-13.174" transform="translate(-65.984 -107.245)" fill="#55a555"/>
      <path id="Path_12686" data-name="Path 12686" d="M106.338,180.43a16.5,16.5,0,0,1-11.885-28.062,16.042,16.042,0,0,1,11.325-4.967l.252,0a16.709,16.709,0,0,1,11.759,4.7,16.59,16.59,0,0,1,.246,23.4,16.251,16.251,0,0,1-11.538,4.936h-.159m-.309-31.608-.231,0a14.628,14.628,0,0,0-10.325,4.535,15.081,15.081,0,0,0,10.862,25.648h.149a15.037,15.037,0,0,0,14.833-15.217,15.038,15.038,0,0,0-4.521-10.674,15.3,15.3,0,0,0-10.767-4.293m.279,28.969h-.176a13.858,13.858,0,0,1,.157-27.715h.076a13.822,13.822,0,0,1,9.608,23.708,13.7,13.7,0,0,1-9.666,4.008M106.29,151.5a12.435,12.435,0,0,0-.139,24.869h.157a12.523,12.523,0,0,0,12.4-12.409A12.452,12.452,0,0,0,106.358,151.5h-.067" transform="translate(-64.196 -105.457)" fill="#55a555"/>
      <path id="Path_12687" data-name="Path 12687" d="M139.233,126.693c-.34,1.05.118,2.563-1.518,2.571-1.661.008-1.156-1.524-1.487-2.529a3.871,3.871,0,0,1-1.5-.2c-.46-.278-1.033-.852-1.024-1.286a1.646,1.646,0,0,1,1.062-1.221,44.321,44.321,0,0,1,5.819-.007,1.6,1.6,0,0,1,1.069,1.171c-.043.493-.609,1.027-1.078,1.365-.292.211-.821.094-1.345.131" transform="translate(-95.66 -88.668)" fill="#55a555"/>
      <path id="Path_12688" data-name="Path 12688" d="M135.914,128.187c-1.84,0-1.967-1.473-2.035-2.265-.009-.1-.017-.194-.027-.285a2.465,2.465,0,0,1-1.278-.276c-.516-.312-1.385-1.065-1.367-1.91a2.3,2.3,0,0,1,1.724-1.916,45.191,45.191,0,0,1,5.913-.007,2.029,2.029,0,0,1,1.235.748,1.736,1.736,0,0,1,.5,1.2,2.97,2.97,0,0,1-1.37,1.881,1.874,1.874,0,0,1-1.181.264c-.011.093-.021.19-.032.289-.083.8-.236,2.276-2.063,2.284Zm-3.278-4.712a1.926,1.926,0,0,0,.673.667,1.871,1.871,0,0,0,.655.073c.177,0,.361.005.548.024l.458.047.144.438a4.729,4.729,0,0,1,.18,1.075c.081.936.126.966.628.965s.554-.04.654-1.008a5.2,5.2,0,0,1,.19-1.07l.148-.456.478-.034c.2-.014.4-.009.569-.006a2.638,2.638,0,0,0,.434-.01,2.31,2.31,0,0,0,.746-.779,1.4,1.4,0,0,0-.437-.457,43.55,43.55,0,0,0-5.629.007,1.362,1.362,0,0,0-.441.525m6.051-.54h0" transform="translate(-93.871 -86.88)" fill="#55a555"/>
      <path id="Path_12689" data-name="Path 12689" d="M196.253,149.431a.908.908,0,0,1,.087,1.055,1.7,1.7,0,0,1-.585.7,1.479,1.479,0,0,1-1.288-.043,5.889,5.889,0,0,1-1.722-1.824,1.857,1.857,0,0,1,.256-1.694,1.629,1.629,0,0,1,1.574.044,11.791,11.791,0,0,1,1.677,1.762" transform="translate(-137.823 -105.488)" fill="#55a555"/>
      <path id="Path_12690" data-name="Path 12690" d="M193.335,150.225a1.814,1.814,0,0,1-1.082-.314,6.64,6.64,0,0,1-1.924-2.062,2.553,2.553,0,0,1,.352-2.493,2.211,2.211,0,0,1,2.543-.05,10.875,10.875,0,0,1,1.6,1.647l.184.217a1.617,1.617,0,0,1,.154,1.881,2.262,2.262,0,0,1-.883.973,2.224,2.224,0,0,1-.946.2m-1.633-3.858a1.314,1.314,0,0,0-.111.824,5.351,5.351,0,0,0,1.518,1.584.968.968,0,0,0,.548-.028,2.678,2.678,0,0,0,.287-.427.2.2,0,0,0-.019-.228l-.187-.221a9.69,9.69,0,0,0-1.383-1.438,1.4,1.4,0,0,0-.653-.065" transform="translate(-136.037 -103.689)" fill="#55a555"/>
      <path id="Path_12691" data-name="Path 12691" d="M97.592,148.715c.046.886-1.924,2.908-2.791,2.866a1.272,1.272,0,0,1-.989-1.987,7.859,7.859,0,0,1,1.834-1.927,1.261,1.261,0,0,1,1.945,1.048" transform="translate(-66.959 -105.488)" fill="#55a555"/>
      <path id="Path_12692" data-name="Path 12692" d="M93.037,150.5h-.061a1.983,1.983,0,0,1-1.547-3.089,8.531,8.531,0,0,1,2-2.105,1.826,1.826,0,0,1,1.9-.183,2.063,2.063,0,0,1,1.185,1.764,3.948,3.948,0,0,1-1.316,2.377,3.708,3.708,0,0,1-2.16,1.237m1.486-4.138a.392.392,0,0,0-.24.083,7.192,7.192,0,0,0-1.666,1.749.561.561,0,0,0,.43.884,4.4,4.4,0,0,0,2.045-2.123.652.652,0,0,0-.368-.544.473.473,0,0,0-.2-.048" transform="translate(-65.17 -103.699)" fill="#55a555"/>
      <path id="Path_12693" data-name="Path 12693" d="M143.119,177.846c0-1.183.007-2.366,0-3.548-.007-.9.236-1.656,1.273-1.7s1.391.678,1.4,1.584q.027,3.69,0,7.38c-.006.886-.305,1.648-1.352,1.636s-1.308-.766-1.309-1.663q0-1.845,0-3.69h-.009" transform="translate(-102.393 -123.485)" fill="#55a555"/>
      <path id="Path_12694" data-name="Path 12694" d="M142.671,182.123h-.031c-.751-.008-2.01-.327-2.013-2.374q0-1.278,0-2.556v-.434l-.009-.7V175c0-.828,0-1.657,0-2.485-.015-2.03,1.218-2.385,1.955-2.415a1.954,1.954,0,0,1,1.491.5,2.389,2.389,0,0,1,.648,1.786c.018,2.459.018,4.945,0,7.391a2.476,2.476,0,0,1-.632,1.817,1.931,1.931,0,0,1-1.407.526m-.629-6.776h.008v1.847q0,1.277,0,2.554c0,.946.308.95.605.953a.587.587,0,0,0,.426-.118,1.221,1.221,0,0,0,.207-.812c.018-2.439.017-4.919,0-7.37a1.132,1.132,0,0,0-.207-.766.6.6,0,0,0-.45-.112c-.294.012-.6.025-.592.983.007.833.005,1.666,0,2.5Z" transform="translate(-100.603 -121.696)" fill="#55a555"/>
    </g>
  </g>
</svg>
