<svg xmlns="http://www.w3.org/2000/svg" xmlns:xlink="http://www.w3.org/1999/xlink" width="67.687" height="67.456" viewBox="0 0 67.687 67.456">
  <defs>
    <clipPath id="clip-path">
      <rect id="Rectangle_6060" data-name="Rectangle 6060" width="67.687" height="67.456" fill="none"/>
    </clipPath>
  </defs>
  <g id="Group_8171" data-name="Group 8171" transform="translate(-957 -853.847)">
    <g id="Group_8170" data-name="Group 8170">
      <g id="Group_8136" data-name="Group 8136" transform="translate(957 853.847)" clip-path="url(#clip-path)">
        <path id="Path_12662" data-name="Path 12662" d="M63.633,31.619A31.943,31.943,0,0,1,34.339,63.268,31.686,31.686,0,0,1,28.029.219a31.453,31.453,0,0,1,11.04.642c1.748.418,2.64,1.571,2.347,2.971C41.1,5.325,39.772,6,37.956,5.6A26.726,26.726,0,0,0,5.291,27.3c-2.644,14.59,8,29.072,22.731,30.932a26.749,26.749,0,0,0,30.47-27.612,36.39,36.39,0,0,0-.739-5.266c-.308-1.715.323-3.024,1.751-3.364,1.4-.333,2.679.549,3,2.277.453,2.437.76,4.9,1.129,7.353" transform="translate(2.027 2.027)" fill="#1d7b82"/>
        <path id="Path_12663" data-name="Path 12663" d="M74.876,45.16c5.185-5.2,10.239-10.264,15.3-15.329q5.813-5.82,11.635-11.63c1.459-1.456,2.859-1.654,3.974-.581,1.16,1.116.971,2.553-.558,4.084Q91.064,35.873,76.9,50.036c-1.385,1.385-2.672,1.465-3.971.178Q67.9,45.226,62.923,40.186a2.412,2.412,0,0,1-.139-3.642,2.456,2.456,0,0,1,3.541.145c.226.2.433.428.649.643q3.339,3.338,6.68,6.675c.353.352.725.685,1.222,1.152" transform="translate(-41.089 -9.75)" fill="#55a555"/>
      </g>
    </g>
  </g>
</svg>
