<svg xmlns="http://www.w3.org/2000/svg" xmlns:xlink="http://www.w3.org/1999/xlink" width="66.004" height="67.306" viewBox="0 0 66.004 67.306">
  <defs>
    <clipPath id="clip-path">
      <rect id="Rectangle_6070" data-name="Rectangle 6070" width="66.004" height="67.306" fill="none"/>
    </clipPath>
  </defs>
  <g id="Group_8169" data-name="Group 8169" transform="translate(-602.998 -850.847)">
    <g id="Group_8168" data-name="Group 8168">
      <path id="Path_12695" data-name="Path 12695" d="M154.345,0V10.256h8.947Z" transform="translate(490.313 850.847)" fill="#55a555"/>
      <g id="Group_8146" data-name="Group 8146" transform="translate(602.998 850.847)">
        <g id="Group_8145" data-name="Group 8145" clip-path="url(#clip-path)">
          <path id="Path_12696" data-name="Path 12696" d="M49.983,19.051V60.034a3.456,3.456,0,0,1-3.451,3.454H7.272a3.459,3.459,0,0,1-3.454-3.454V7.272A3.459,3.459,0,0,1,7.272,3.818H33.342V0H7.272A7.281,7.281,0,0,0,0,7.272V60.034a7.279,7.279,0,0,0,7.272,7.272h39.26A7.277,7.277,0,0,0,53.8,60.034V19.051Z" fill="#1d7b82"/>
          <rect id="Rectangle_6065" data-name="Rectangle 6065" width="13.407" height="3.73" transform="translate(10.682 14.24)" fill="#1d7b82"/>
          <rect id="Rectangle_6066" data-name="Rectangle 6066" width="25.977" height="3.73" transform="translate(10.682 23.143)" fill="#1d7b82"/>
          <rect id="Rectangle_6067" data-name="Rectangle 6067" width="20.319" height="3.73" transform="translate(10.682 32.045)" fill="#1d7b82"/>
          <rect id="Rectangle_6068" data-name="Rectangle 6068" width="20.319" height="3.73" transform="translate(10.682 40.948)" fill="#1d7b82"/>
          <rect id="Rectangle_6069" data-name="Rectangle 6069" width="20.319" height="3.73" transform="translate(10.682 49.851)" fill="#1d7b82"/>
          <path id="Path_12697" data-name="Path 12697" d="M170.88,110.943a15.1,15.1,0,1,1-15.1-15.1,15.1,15.1,0,0,1,15.1,15.1" transform="translate(-104.876 -71.45)" fill="#55a555"/>
          <path id="Path_12698" data-name="Path 12698" d="M173.848,140.287l2.516-3.539,2.8,2.313,6.265-6.763,3.172,2.857-7.421,8.158a1.568,1.568,0,0,1-.649.432,3.235,3.235,0,0,1-2.311-.045c-1.415-.6-4.378-3.414-4.378-3.414" transform="translate(-129.6 -98.626)" fill="#fff"/>
        </g>
      </g>
    </g>
  </g>
</svg>
