<svg xmlns="http://www.w3.org/2000/svg" xmlns:xlink="http://www.w3.org/1999/xlink" width="70.062" height="75" viewBox="0 0 70.062 75">
  <defs>
    <clipPath id="clip-path">
      <rect id="Rectangle_6061" data-name="Rectangle 6061" width="70.062" height="75" fill="none" stroke="#1d7b82" stroke-width="0.5"/>
    </clipPath>
  </defs>
  <g id="Group_8167" data-name="Group 8167" transform="translate(-240 -847)">
    <g id="Group_8166" data-name="Group 8166">
      <g id="Group_8138" data-name="Group 8138" transform="translate(240 847)" clip-path="url(#clip-path)">
        <path id="Path_12664" data-name="Path 12664" d="M44.158,40.8c3.218-1.247,6.354-2.457,9.487-3.679,1.295-.5,1.438-1.579.595-2.72-.855-1.157-1.486-2.477-2.259-3.7a2.948,2.948,0,0,0-1-1.088c-2.386-1.2-2.932-2.842-1.983-5.288a9.711,9.711,0,0,0,.317-3.3,10.006,10.006,0,0,1,4.481-8.6,9.771,9.771,0,0,1,10.551-.682,9.919,9.919,0,0,1,5.6,8.828c.08,1.586-.077,3.147.671,4.705.711,1.48-.24,3.346-1.919,4.1a2.8,2.8,0,0,0-1.593,1.855,10.01,10.01,0,0,1-1.756,2.827c-1.188,1.42-.993,2.482.725,3.154,2.817,1.1,5.621,2.237,8.462,3.274a1.658,1.658,0,0,0,1.43-.335,21.633,21.633,0,0,0,5.98-11.983c.039-.241.04-.488.087-.727.156-.785.3-1.659,1.406-1.45,1,.188.909,1,.806,1.751a24.423,24.423,0,0,1-7.552,14.837c-.6.571-1.216,1.132-1.828,1.694-2.453,2.254-2.022,5.225-1.989,8.089,0,.178.253.382.43.522a4.322,4.322,0,0,1,1.561,5.275,2.413,2.413,0,0,0-.064,1.349c1.082,3.437,0,5.262-3.628,5.829,0,.64.027,1.306,0,1.969a2.9,2.9,0,0,1-3.051,3.04c-1.462.055-2.926.056-4.389.085-.042,0-.082.05-.123.076-.669,3.68-1.334,4.469-3.786,4.493-2.568.026-3.213-.7-3.987-4.641-1.214,0-2.469,0-3.724,0-2.883-.011-3.87-1-3.873-3.881,0-.338,0-.677,0-.974-.114-.1-.18-.215-.249-.218-3.578-.124-4.057-2.679-3.381-5.652a2.872,2.872,0,0,0-.013-1.463,4.429,4.429,0,0,1,1.531-5.287,1.3,1.3,0,0,0,.484-.8c.243-3.48-.345-6.43-3.244-9.047-7.754-7-10.292-15.859-7.111-25.8C39.384,7.447,46.4,1.592,56.644.225c13.509-1.8,25.438,7.4,27.548,20.9.123.786.158,1.558-.814,1.729-1.082.19-1.255-.659-1.4-1.462-1.818-9.746-7.506-16.054-17.065-18.58C51.8-.656,38.145,9.407,37.319,22.916a22.208,22.208,0,0,0,6.258,17.365c.2.208.43.383.581.517m1.766,1.692c3.153,2.8,3,6.419,2.888,10.056h21.8c-.131-3.659-.136-7.246,2.9-10.07C71.158,41.558,69,40.683,66.8,39.9c-.28-.1-.806.184-1.086.438a31.513,31.513,0,0,1-2.529,2.42c-.381.274-1.166-.014-1.767-.047.144-.544.126-1.238.465-1.6a20.176,20.176,0,0,1,2.362-1.919l-.663-.243L62.208,36.32H57.327l-1.781,3.007a19.117,19.117,0,0,1,1.993,1.88,4.5,4.5,0,0,1,.5,1.6c-.6.045-1.387.354-1.761.085a33.453,33.453,0,0,1-2.656-2.495c-.282-.254-.8-.559-1.071-.461-2.145.769-4.257,1.63-6.628,2.559m7.916-18.646c0,1.446-.032,3,.006,4.544a5.722,5.722,0,0,0,5.805,5.875,5.642,5.642,0,0,0,5.772-5.732c.055-1.217-.1-2.452.042-3.656a3.682,3.682,0,0,0-1.778-3.761A48.717,48.717,0,0,1,59.035,22.9c-1.63.452-3.338.617-5.2.941m-2.3-1.682A6.86,6.86,0,0,1,53.7,21.4a16.119,16.119,0,0,0,8.9-2.41,1.889,1.889,0,0,1,2.621.4c.806.888,1.627,1.762,2.5,2.7.319-5.283-3.139-9.242-7.987-9.278-5.045-.038-8.508,3.941-8.2,9.353m8.282,37.86c-3.905,0-7.811.029-11.716-.019-1.127-.014-1.585.361-1.584,1.511,0,1.178.524,1.485,1.62,1.48q11.57-.047,23.14,0c1.052,0,1.621-.2,1.635-1.439.015-1.277-.518-1.566-1.671-1.55-3.807.05-7.615.019-11.423.019m-.006-2.248c3.758,0,7.517-.02,11.275.013,1.108.009,1.864-.081,1.83-1.54-.032-1.368-.748-1.46-1.79-1.458q-11.421.026-22.842,0c-1.088,0-1.756.19-1.773,1.5s.638,1.515,1.733,1.5c3.855-.038,7.711-.015,11.567-.015m-.147,7.43c-2.534,0-5.069.028-7.6-.013-1.06-.017-1.633.248-1.617,1.464.015,1.117.388,1.567,1.538,1.559q7.748-.055,15.5,0c1.125.006,1.552-.421,1.565-1.555.013-1.221-.584-1.477-1.632-1.463-2.582.034-5.166.011-7.749.011M61.3,70.456H57.956c.346.866.439,1.752.925,2.117a1.929,1.929,0,0,0,1.873-.1c.414-.368.366-1.255.543-2.014" transform="translate(-24.68 0)" fill="#1d7b82" stroke="#1d7b82" stroke-width="0.5"/>
        <path id="Path_12665" data-name="Path 12665" d="M213.652,34.916a6.5,6.5,0,0,1-.8,1.1,35.686,35.686,0,0,1-3.387,2.767c-.432.293-1.181.118-1.785.157.111-.585.024-1.368.371-1.717a31.223,31.223,0,0,1,3.465-2.9,1.915,1.915,0,0,1,1.326-.276c.279.044.491.5.813.867" transform="translate(-146.797 -24.053)" fill="#55a555" stroke="#55a555" stroke-width="0.5"/>
        <path id="Path_12666" data-name="Path 12666" d="M17.085,114.493c.2.148.649.315.743.6a1.369,1.369,0,0,1-.139,1.183c-1.331,1.207-2.712,2.365-4.151,3.44a1.325,1.325,0,0,1-1.273-.18,1.292,1.292,0,0,1-.125-1.249c1.392-1.278,2.874-2.459,4.337-3.659.1-.081.278-.065.606-.133" transform="translate(-8.503 -80.929)" fill="#55a555" stroke="#55a555" stroke-width="0.5"/>
        <path id="Path_12667" data-name="Path 12667" d="M213.264,119.211c-.188.252-.353.7-.638.8a1.493,1.493,0,0,1-1.208-.1,49.363,49.363,0,0,1-3.914-3.27,1.475,1.475,0,0,1-.118-1.383,1.285,1.285,0,0,1,1.225-.315c1.511,1.136,2.942,2.377,4.383,3.6.128.108.145.347.27.67" transform="translate(-146.508 -81.201)" fill="#55a555" stroke="#55a555" stroke-width="0.5"/>
        <path id="Path_12668" data-name="Path 12668" d="M17.989,38.02a1.051,1.051,0,0,1-1.65,1.008,48.374,48.374,0,0,1-4.124-3.475,1.293,1.293,0,0,1-.015-1.268,1.317,1.317,0,0,1,1.241-.307c1.51,1.139,2.94,2.383,4.381,3.612.126.108.139.35.168.429" transform="translate(-8.511 -23.973)" fill="#55a555" stroke="#55a555" stroke-width="0.5"/>
        <path id="Path_12669" data-name="Path 12669" d="M3.423,81.717A10.227,10.227,0,0,1,1.1,81.668c-.426-.1-.736-.692-1.1-1.063.347-.336.676-.936,1.045-.962a31.185,31.185,0,0,1,4.669,0c.394.031.738.691,1.105,1.061-.4.339-.757.865-1.213.974a9.52,9.52,0,0,1-2.182.043v-.008" transform="translate(0.001 -56.235)" fill="#55a555" stroke="#55a555" stroke-width="0.5"/>
        <path id="Path_12670" data-name="Path 12670" d="M219.492,79.619a11.14,11.14,0,0,1,2.331.049c.4.088.958.662.954,1.011a1.406,1.406,0,0,1-.964,1,34.976,34.976,0,0,1-4.823,0,1.394,1.394,0,0,1-.939-1.011,1.444,1.444,0,0,1,.962-1,12.854,12.854,0,0,1,2.479-.045" transform="translate(-152.716 -56.251)" fill="#55a555" stroke="#55a555" stroke-width="0.5"/>
      </g>
    </g>
  </g>
</svg>
