<svg id="Group_3085" data-name="Group 3085" xmlns="http://www.w3.org/2000/svg" xmlns:xlink="http://www.w3.org/1999/xlink" width="112.978" height="120" viewBox="0 0 112.978 120">
  <defs>
    <clipPath id="clip-path">
      <rect id="Rectangle_2194" data-name="Rectangle 2194" width="112.978" height="120" fill="none"/>
    </clipPath>
  </defs>
  <g id="Group_3084" data-name="Group 3084" clip-path="url(#clip-path)">
    <path id="Path_2528" data-name="Path 2528" d="M78.875,133.894H14.158A14.159,14.159,0,0,1,0,119.736V48.619A14.159,14.159,0,0,1,14.158,34.461H78.875A14.159,14.159,0,0,1,93.034,48.619v71.116a14.159,14.159,0,0,1-14.158,14.158" transform="translate(2.24 -14.848)" fill="#cbe6e6"/>
    <path id="Path_2529" data-name="Path 2529" d="M93.318,136.973H26.6a14.6,14.6,0,0,1-14.6-14.6V49.058a14.6,14.6,0,0,1,14.6-14.6H93.318a14.6,14.6,0,0,1,14.6,14.6v73.318a14.6,14.6,0,0,1-14.6,14.6" transform="translate(-5.91 -16.973)" fill="#dcf9f9"/>
    <path id="Path_2530" data-name="Path 2530" d="M107.6,11.942c3.878,5.945,2.607,12.132-3.036,14.7a10.65,10.65,0,0,1-4.4.974q-16.7.033-33.39.038a2.766,2.766,0,0,1-1.931-.415c2.138-1.39,4.315-.738,5.877-.423a9.058,9.058,0,0,1-5.425-9.552c.4-4.139,3.152-7.239,7.55-8.507a8.046,8.046,0,0,1,2.985-.5c2.465.249,4.08-.709,5.406-2.835A8.547,8.547,0,0,1,87.3,1.24a11.34,11.34,0,0,1,7.613,5.742,3.382,3.382,0,0,0,3.608,2.008,11.464,11.464,0,0,1,9.085,2.953" transform="translate(-31.935 -0.611)" fill="#fdde82"/>
    <path id="Path_2531" data-name="Path 2531" d="M79.956.629c-2.805,1.844-5.646,3.644-7.071,6.912-.435,1-1.407.789-2.216.751a15.936,15.936,0,0,0-5.953.776,8.654,8.654,0,0,0-6.07,7.355c-.6,3.919,1.246,6.807,4.337,9.024.2.146.457.219.666.358.191.127.354.3.961.819H57.5c-6.46-.931-9.269-6.893-6.5-13.8.208-.583.347-1.215,1.044-1.445A10.946,10.946,0,0,1,60.83,8.37c2.013.182,3.132-.561,4.213-2.291A12.8,12.8,0,0,1,79.956.629" transform="translate(-24.595 0)" fill="#efcc6a"/>
    <path id="Path_2532" data-name="Path 2532" d="M96.432,15.521a5.7,5.7,0,0,1,5.511,5.484A5.607,5.607,0,0,1,96.3,26.569a5.526,5.526,0,0,1,.135-11.048" transform="translate(-44.802 -7.644)" fill="#efcc6a"/>
    <path id="Path_2533" data-name="Path 2533" d="M37.251,70.087a8.626,8.626,0,1,1-8.626-8.626,8.626,8.626,0,0,1,8.626,8.626" transform="translate(-9.85 -30.271)" fill="#d75f6d"/>
    <path id="Path_2534" data-name="Path 2534" d="M37.251,114.28a8.626,8.626,0,1,1-8.626-8.626,8.626,8.626,0,0,1,8.626,8.626" transform="translate(-9.85 -52.036)" fill="#9bcf94"/>
    <path id="Path_2535" data-name="Path 2535" d="M37.251,161.022a8.626,8.626,0,1,1-8.626-8.626,8.626,8.626,0,0,1,8.626,8.626" transform="translate(-9.85 -75.058)" fill="#437191"/>
    <path id="Path_2539" data-name="Path 2539" d="M76.128,67.391c2.943,0,5.887.012,8.83-.006,1.269-.008,2.443.243,2.405,1.766-.034,1.4-1.247,1.633-2.36,1.638-5.886.028-11.773.01-17.659.019-1.2,0-2.255-.306-2.273-1.69s1.015-1.733,2.227-1.729c2.943.01,5.886,0,8.83,0" transform="translate(-32.049 -33.188)" fill="#d75f6d"/>
    <path id="Path_2540" data-name="Path 2540" d="M71.929,87Q69.464,87,67,87c-1.059,0-1.846-.445-1.972-1.546-.138-1.205.793-1.748,1.727-1.774,3.5-.1,7-.094,10.5-.022A1.518,1.518,0,0,1,78.77,85.4a1.6,1.6,0,0,1-1.7,1.583c-1.713.053-3.429.015-5.143.015Z" transform="translate(-32.021 -41.179)" fill="#d75f6d"/>
    <path id="Path_2541" data-name="Path 2541" d="M76.128,109.034c2.943,0,5.887.012,8.83-.006,1.269-.008,2.443.243,2.405,1.766-.034,1.4-1.247,1.633-2.36,1.638-5.886.028-11.773.01-17.659.019-1.2,0-2.255-.306-2.273-1.69s1.015-1.733,2.227-1.729c2.943.01,5.886,0,8.83,0" transform="translate(-32.049 -53.698)" fill="#9bcf94"/>
    <path id="Path_2542" data-name="Path 2542" d="M71.929,128.648q-2.465,0-4.93,0c-1.059,0-1.846-.445-1.972-1.546-.138-1.205.793-1.748,1.727-1.774,3.5-.1,7-.094,10.5-.022a1.518,1.518,0,0,1,1.519,1.735,1.6,1.6,0,0,1-1.7,1.583c-1.713.053-3.429.015-5.143.015Z" transform="translate(-32.021 -61.689)" fill="#9bcf94"/>
    <path id="Path_2543" data-name="Path 2543" d="M76.128,158.326c2.943,0,5.887.012,8.83-.006,1.269-.008,2.443.243,2.405,1.766-.034,1.4-1.247,1.633-2.36,1.638-5.886.028-11.773.01-17.659.019-1.2,0-2.255-.306-2.273-1.69s1.015-1.733,2.227-1.729c2.943.01,5.886,0,8.83,0" transform="translate(-32.049 -77.975)" fill="#437191"/>
    <path id="Path_2544" data-name="Path 2544" d="M71.929,177.939q-2.465,0-4.93,0c-1.059,0-1.846-.445-1.972-1.546-.138-1.205.793-1.748,1.727-1.774,3.5-.1,7-.094,10.5-.022a1.518,1.518,0,0,1,1.519,1.735,1.6,1.6,0,0,1-1.7,1.583c-1.713.053-3.429.015-5.143.015Z" transform="translate(-32.021 -85.966)" fill="#437191"/>
    <path id="Path_2545" data-name="Path 2545" d="M161.02,158.222a2.094,2.094,0,1,1,2.1,2.06,2.2,2.2,0,0,1-2.1-2.06" transform="translate(-79.305 -76.872)" fill="#fbb871"/>
    <path id="Path_2546" data-name="Path 2546" d="M144.58,158.118a2.1,2.1,0,1,1,2.135,2.165,2.209,2.209,0,0,1-2.135-2.165" transform="translate(-71.207 -76.873)" fill="#fbb871"/>
    <path id="Path_2547" data-name="Path 2547" d="M128.162,158.255a2.094,2.094,0,1,1,2.135,2.025,2.2,2.2,0,0,1-2.135-2.025" transform="translate(-63.121 -76.87)" fill="#fbb871"/>
    <path id="Path_2548" data-name="Path 2548" d="M125.434,126.87a17.366,17.366,0,0,0,7.281,33.717,17.982,17.982,0,0,0,9.382-3.867,2.9,2.9,0,0,0,.434-.188,3.1,3.1,0,0,0,.344-.209l0,0a2.97,2.97,0,0,0,.271-.2c.668-.7,1.262-1.459,1.909-2.173q.087-.114.18-.223l.124-.147a2.61,2.61,0,0,0,.532-.841,1.51,1.51,0,0,1,.133-.313s0,0,0,0a1.983,1.983,0,0,0,.18-.416.7.7,0,0,0,.02-.243c.114-.246.221-.494.339-.739a17.014,17.014,0,0,0,.9-13.266,17.35,17.35,0,0,0-22.031-10.887M144.537,139a.975.975,0,0,1,.015.2,13.2,13.2,0,0,1,.084,8.1,14.187,14.187,0,0,1-27.337-.348,11.224,11.224,0,0,1-.365-4.83,13.284,13.284,0,0,1,3.759-8.567,13.65,13.65,0,0,1,8.631-4.363A14.125,14.125,0,0,1,144.537,139" transform="translate(-55.994 -62.022)" fill="#fbb871"/>
    <path id="Path_2549" data-name="Path 2549" d="M203.034,205.116a4.539,4.539,0,0,1-6.621,1.4c-3.864-2.991-7.625-6.117-11.428-9.188a1.709,1.709,0,0,1-.476-1.945c-.119-.478.239-.752.487-1.048a19.82,19.82,0,0,1,2.03-2.385.861.861,0,0,1,.286-.074,2.91,2.91,0,0,1,2.23.763c3.7,3.032,7.444,6.017,11.149,9.047a5.379,5.379,0,0,1,2.343,3.434" transform="translate(-90.823 -94.493)" fill="#4468ae"/>
    <path id="Path_2550" data-name="Path 2550" d="M205.824,202.971a11.523,11.523,0,0,0-3.849-4.351c-3-2.388-5.973-4.822-8.961-7.232-.876-.707-1.661-1.6-2.944-1.526a2.58,2.58,0,0,1,1.649-2.09,1.9,1.9,0,0,1,2.334.31c3.529,2.889,7.094,5.732,10.626,8.617a4.592,4.592,0,0,1,1.145,6.272" transform="translate(-93.613 -92.348)" fill="#2e5190"/>
    <path id="Path_2551" data-name="Path 2551" d="M170.734,182.731a24.75,24.75,0,0,1,1.821-2.238c1.547-.684,2.481-.127,2.676,1.593a2.271,2.271,0,0,1-.35,1.064c-.655.811-1.27,1.657-1.986,2.421-.133,0-.308-.066-.393-.005a1.5,1.5,0,0,1-1.955.087,1.686,1.686,0,0,1-.525-2.01,2.246,2.246,0,0,1,.712-.912" transform="translate(-83.681 -88.756)" fill="#fde5ae"/>
    <path id="Path_2552" data-name="Path 2552" d="M184.718,190.187l-2.581,3.315a1.711,1.711,0,0,1-2-.082,1.631,1.631,0,0,1-.464-1.843,2.706,2.706,0,0,0,.016-.506c.6-.852,1.284-1.628,1.94-2.432a2.338,2.338,0,0,1,.8-.532c1.756-.3,2.676.536,2.285,2.08" transform="translate(-88.45 -92.616)" fill="#fde5ae"/>
    <path id="Path_2553" data-name="Path 2553" d="M182.122,184.745l-.567.471a5.362,5.362,0,0,1-2.264-1.829l.344-.85c.394-.749.681-1.594,1.649-1.821l2.293,1.96c0,1.032-.83,1.478-1.455,2.069" transform="translate(-88.304 -89.006)" fill="#fbb871"/>
    <path id="Path_2554" data-name="Path 2554" d="M184.87,186.141l1.455-2.069a2.737,2.737,0,0,1,1.612-.512c.957.116,1.428.986,1.22,2.265l-1.649,2.09a.766.766,0,0,0-.189.057c-.191-1.733-.629-2.06-2.45-1.832" transform="translate(-91.052 -90.401)" fill="#fcd27c"/>
    <path id="Path_2555" data-name="Path 2555" d="M179.235,178.238l-1.65,1.821c-.208-1.692-.627-2-2.457-1.794l.894-1.124a2.6,2.6,0,0,1,.746-.9,1.523,1.523,0,0,1,2.19-.178,1.5,1.5,0,0,1,.277,2.169" transform="translate(-86.253 -86.527)" fill="#fcd27c"/>
    <path id="Path_2556" data-name="Path 2556" d="M177.571,185.98a11.054,11.054,0,0,1,2.264,1.829,6.7,6.7,0,0,1-2.009,2.245l-2.028-1.64a6.689,6.689,0,0,1,1.773-2.434" transform="translate(-86.583 -91.598)" fill="#fcd27c"/>
    <path id="Path_2557" data-name="Path 2557" d="M170.617,185.179a2.266,2.266,0,0,1-.712.912l-.238-.19a1.8,1.8,0,0,1,.949-.722" transform="translate(-83.564 -91.204)" fill="#f9f0e1"/>
    <path id="Path_2558" data-name="Path 2558" d="M177.635,176.792a2.13,2.13,0,0,1-.746.9,1.138,1.138,0,0,1,.468-.874l.278-.021" transform="translate(-87.121 -87.073)" fill="#f9e9cd"/>
  </g>
</svg>
