<svg xmlns="http://www.w3.org/2000/svg" xmlns:xlink="http://www.w3.org/1999/xlink" width="243.166" height="174.979" viewBox="0 0 243.166 174.979">
  <defs>
    <clipPath id="clip-path">
      <rect id="Rectangle_1885" data-name="Rectangle 1885" width="243.166" height="160.445" fill="#1778f2"/>
    </clipPath>
  </defs>
  <g id="Nothing" transform="translate(-768.088 -267.677)">
    <g id="Group_1225" data-name="Group 1225" transform="translate(768.088 282.21)">
      <g id="Group_1224" data-name="Group 1224" transform="translate(0 0)" clip-path="url(#clip-path)">
        <path id="Path_65" data-name="Path 65" d="M147.218,134.1l-4.26-18.571a33.487,33.487,0,0,1-.037-14.81l5.926-26.452a51.858,51.858,0,0,0-27.425-57.52,12.852,12.852,0,0,0,.5-1.493A12.517,12.517,0,0,0,97.49,9.782a12.809,12.809,0,0,0-.188,1.563A51.858,51.858,0,0,0,47.956,51.663L42.03,78.117a33.521,33.521,0,0,1-6.352,13.376L23.9,106.473a11.046,11.046,0,0,0,6.269,17.6l103.868,23.27A11.046,11.046,0,0,0,147.218,134.1" transform="translate(25.549 0)" fill="#1778f2"/>
        <path id="Path_66" data-name="Path 66" d="M46.378,64.016a4.916,4.916,0,0,0-5.9,5.653,17.966,17.966,0,0,0,32.443,7.268A4.916,4.916,0,0,0,70,69.308Z" transform="translate(47.947 75.821)" fill="#1778f2"/>
        <path id="Path_67" data-name="Path 67" d="M14.561,100.986a3.274,3.274,0,0,1-2.729-1.458A70.141,70.141,0,0,1,31.218,2.242,3.28,3.28,0,0,1,34.861,7.7,63.582,63.582,0,0,0,17.285,95.885a3.28,3.28,0,0,1-2.725,5.1" transform="translate(0 2.004)" fill="#1778f2"/>
        <path id="Path_68" data-name="Path 68" d="M19.387,84.159A3.274,3.274,0,0,1,16.658,82.7,53.425,53.425,0,0,1,31.427,8.6a3.28,3.28,0,0,1,3.643,5.456,46.866,46.866,0,0,0-12.958,65,3.28,3.28,0,0,1-2.725,5.1" transform="translate(9.074 9.548)" fill="#1778f2"/>
        <path id="Path_69" data-name="Path 69" d="M24.217,67.335a3.274,3.274,0,0,1-2.729-1.458A36.711,36.711,0,0,1,31.634,14.958a3.28,3.28,0,0,1,3.643,5.456,30.152,30.152,0,0,0-8.336,41.82,3.28,3.28,0,0,1-2.725,5.1" transform="translate(18.15 17.092)" fill="#1778f2"/>
        <path id="Path_70" data-name="Path 70" d="M94.921,120.659a3.28,3.28,0,0,1-1.507-6.195A63.579,63.579,0,0,0,120.743,28.8a3.28,3.28,0,1,1,5.83-3.009,70.146,70.146,0,0,1-30.15,94.507,3.286,3.286,0,0,1-1.5.365" transform="translate(108.742 28.495)" fill="#1778f2"/>
        <path id="Path_71" data-name="Path 71" d="M91.414,101.646a3.28,3.28,0,0,1-1.507-6.195A46.868,46.868,0,0,0,110.05,32.3a3.28,3.28,0,1,1,5.83-3.009,53.431,53.431,0,0,1-22.964,71.987,3.28,3.28,0,0,1-1.5.365" transform="translate(104.58 32.657)" fill="#1778f2"/>
        <path id="Path_72" data-name="Path 72" d="M87.908,82.63A3.28,3.28,0,0,1,86.4,76.436,30.15,30.15,0,0,0,99.359,35.812a3.281,3.281,0,1,1,5.83-3.011A36.756,36.756,0,0,1,89.41,82.265a3.28,3.28,0,0,1-1.5.365" transform="translate(100.42 36.818)" fill="#1778f2"/>
      </g>
    </g>
    <g id="Group_1226" data-name="Group 1226" transform="translate(863.914 267.677)">
      <path id="Path_74" data-name="Path 74" d="M63,108.134a4.586,4.586,0,0,1,4.615-4.85,4.856,4.856,0,0,1,0,9.7A4.585,4.585,0,0,1,63,108.134" transform="translate(-62.998 -61.727)" fill="#f65d74"/>
      <path id="Path_75" data-name="Path 75" d="M72.15,18.656c-.066-.068-.157-.241-.252-.241H64.388c-.1,0-.186.173-.252.241a.531.531,0,0,0-.1.322l1.1,37.418c.006.19.161.213.351.213H70.8c.19,0,.345.011.351-.179L72.249,18.9a.321.321,0,0,0-.1-.241" transform="translate(-63.528 -18.415)" fill="#f65d74"/>
    </g>
  </g>
</svg>
