<svg id="You_Don_t_have_any_Transaction" data-name="You Don&apos;t have any Transaction" xmlns="http://www.w3.org/2000/svg" xmlns:xlink="http://www.w3.org/1999/xlink" width="214.859" height="178.513" viewBox="0 0 214.859 178.513">
  <defs>
    <clipPath id="clip-path">
      <rect id="Rectangle_2623" data-name="Rectangle 2623" width="214.859" height="178.513" fill="none"/>
    </clipPath>
    <clipPath id="clip-path-3">
      <rect id="Rectangle_2621" data-name="Rectangle 2621" width="97.489" height="96.377" fill="none"/>
    </clipPath>
  </defs>
  <g id="Group_3851" data-name="Group 3851" clip-path="url(#clip-path)">
    <path id="Path_3081" data-name="Path 3081" d="M63.352,591.35v23.192H215.307v-15.9Z" transform="translate(-47.276 -441.295)" fill="#223265"/>
    <g id="Group_3850" data-name="Group 3850">
      <g id="Group_3849" data-name="Group 3849" clip-path="url(#clip-path)">
        <path id="Path_3082" data-name="Path 3082" d="M523.2,398.179v5.258a2.007,2.007,0,0,1-.347,1.131,2.039,2.039,0,0,1-.951.758,1.9,1.9,0,0,1-.371.1c-.039.007-.078.013-.118.018s-.063.007-.094.009l-.047,0-.1,0H437.412a2.033,2.033,0,0,1-2.024-1.922c0-.035,0-.07,0-.1v-5.258c0-.035,0-.07,0-.1a2.033,2.033,0,0,1,2.024-1.922h83.759c.036,0,.072,0,.108,0a2.019,2.019,0,0,1,.25.029,1.882,1.882,0,0,1,.371.1,1.769,1.769,0,0,1,.176.078c.036.018.07.036.1.056a.029.029,0,0,1,.011.007c.035.02.068.041.1.064a.107.107,0,0,1,.017.011,1.04,1.04,0,0,1,.091.066,1.793,1.793,0,0,1,.2.176c.02.019.039.039.057.06l.01.011a.492.492,0,0,1,.035.038l.007.008c.02.024.04.048.059.074s.055.072.081.11a2.007,2.007,0,0,1,.347,1.132" transform="translate(-324.907 -295.628)" fill="#ffb93e"/>
        <path id="Path_3083" data-name="Path 3083" d="M482.068,405.463H437.2a1.921,1.921,0,0,1-1.807-1.922c0-.035,0-.07,0-.1v-5.258c0-.035,0-.07,0-.1a1.921,1.921,0,0,1,1.807-1.922h39.362c.016.071.032.142.051.215a16.606,16.606,0,0,0,5.441,9.082l.018.015" transform="translate(-324.907 -295.628)" fill="#ffa412"/>
        <rect id="Rectangle_2456" data-name="Rectangle 2456" width="0.952" height="9.311" transform="translate(187.147 100.524)" fill="#ffa412"/>
        <rect id="Rectangle_2457" data-name="Rectangle 2457" width="0.952" height="9.311" transform="translate(183.925 100.524)" fill="#ffa412"/>
        <rect id="Rectangle_2458" data-name="Rectangle 2458" width="0.952" height="9.311" transform="translate(180.061 100.524)" fill="#ffa412"/>
        <rect id="Rectangle_2459" data-name="Rectangle 2459" width="0.952" height="9.311" transform="translate(174.138 100.524)" fill="#ffa412"/>
        <rect id="Rectangle_2460" data-name="Rectangle 2460" width="0.952" height="9.311" transform="translate(167.874 100.524)" fill="#ffa412"/>
        <rect id="Rectangle_2461" data-name="Rectangle 2461" width="0.952" height="9.311" transform="translate(158.272 100.524)" fill="#ffa412"/>
        <rect id="Rectangle_2462" data-name="Rectangle 2462" width="0.952" height="9.311" transform="translate(149.282 100.524)" fill="#ffa412"/>
        <rect id="Rectangle_2463" data-name="Rectangle 2463" width="0.952" height="9.311" transform="translate(141.254 100.524)" fill="#ffa412"/>
        <rect id="Rectangle_2464" data-name="Rectangle 2464" width="0.952" height="9.311" transform="translate(190.214 100.524)" fill="#ffa412"/>
        <rect id="Rectangle_2465" data-name="Rectangle 2465" width="0.952" height="9.311" transform="translate(192.241 100.524)" fill="#ffa412"/>
        <rect id="Rectangle_2466" data-name="Rectangle 2466" width="0.952" height="9.311" transform="translate(194.198 100.524)" fill="#ffa412"/>
        <path id="Path_3084" data-name="Path 3084" d="M772.063,396.185v9.246a1.984,1.984,0,0,1-.357.032h-.595v-9.311h.595a1.984,1.984,0,0,1,.357.032" transform="translate(-575.441 -295.628)" fill="#ffa412"/>
        <path id="Path_3085" data-name="Path 3085" d="M777.275,397.448v7.521a2.039,2.039,0,0,1-.951.758V396.69a2.04,2.04,0,0,1,.951.758" transform="translate(-579.332 -296.03)" fill="#ffa412"/>
        <path id="Path_3086" data-name="Path 3086" d="M547.465,362.33v5.258a2.006,2.006,0,0,1-.347,1.132,2.037,2.037,0,0,1-.951.758,1.875,1.875,0,0,1-.371.1,1.976,1.976,0,0,1-.357.032H461.681a2,2,0,0,1-.905-.215,2.035,2.035,0,0,1-1.113-1.625c0-.027,0-.055-.006-.083s0-.069,0-.1V362.33c0-.035,0-.069,0-.1a2.034,2.034,0,0,1,1.784-1.908,1.864,1.864,0,0,1,.24-.014h83.758a1.971,1.971,0,0,1,.357.033,1.889,1.889,0,0,1,.371.1,2.04,2.04,0,0,1,.951.758,2.007,2.007,0,0,1,.347,1.132" transform="translate(-343.017 -268.877)" fill="#ffb93e"/>
        <path id="Path_3087" data-name="Path 3087" d="M506.336,369.615H461.463a1.63,1.63,0,0,1-.807-.215,2.047,2.047,0,0,1-.994-1.625c0-.027,0-.055-.006-.083s0-.069,0-.1V362.33c0-.035,0-.069,0-.1a1.954,1.954,0,0,1,1.593-1.908,1.484,1.484,0,0,1,.214-.014h39.362l0,.014a16.778,16.778,0,0,0,5.249,9.082c.084.073.17.144.258.215" transform="translate(-343.017 -268.877)" fill="#ffa412"/>
        <rect id="Rectangle_2467" data-name="Rectangle 2467" width="0.952" height="9.311" transform="translate(193.305 91.427)" fill="#ffa412"/>
        <rect id="Rectangle_2468" data-name="Rectangle 2468" width="0.952" height="9.311" transform="translate(190.083 91.427)" fill="#ffa412"/>
        <rect id="Rectangle_2469" data-name="Rectangle 2469" width="0.952" height="9.311" transform="translate(186.218 91.427)" fill="#ffa412"/>
        <rect id="Rectangle_2470" data-name="Rectangle 2470" width="0.952" height="9.311" transform="translate(180.296 91.427)" fill="#ffa412"/>
        <rect id="Rectangle_2471" data-name="Rectangle 2471" width="0.952" height="9.311" transform="translate(174.032 91.427)" fill="#ffa412"/>
        <rect id="Rectangle_2472" data-name="Rectangle 2472" width="0.952" height="9.311" transform="translate(164.43 91.427)" fill="#ffa412"/>
        <rect id="Rectangle_2473" data-name="Rectangle 2473" width="0.952" height="9.311" transform="translate(155.44 91.427)" fill="#ffa412"/>
        <rect id="Rectangle_2474" data-name="Rectangle 2474" width="0.952" height="9.311" transform="translate(147.412 91.427)" fill="#ffa412"/>
        <rect id="Rectangle_2475" data-name="Rectangle 2475" width="0.952" height="9.311" transform="translate(196.372 91.427)" fill="#ffa412"/>
        <rect id="Rectangle_2476" data-name="Rectangle 2476" width="0.952" height="9.311" transform="translate(198.399 91.427)" fill="#ffa412"/>
        <rect id="Rectangle_2477" data-name="Rectangle 2477" width="0.952" height="9.311" transform="translate(200.356 91.427)" fill="#ffa412"/>
        <path id="Path_3088" data-name="Path 3088" d="M796.33,360.336v9.247a2,2,0,0,1-.357.032h-.6V360.3h.6a1.976,1.976,0,0,1,.357.032" transform="translate(-593.55 -268.876)" fill="#ffa412"/>
        <path id="Path_3089" data-name="Path 3089" d="M801.542,361.6v7.521a2.039,2.039,0,0,1-.951.758v-9.038a2.041,2.041,0,0,1,.951.758" transform="translate(-597.441 -269.277)" fill="#ffa412"/>
        <path id="Path_3090" data-name="Path 3090" d="M523.2,325.692v5.258a2.007,2.007,0,0,1-.347,1.132,2.041,2.041,0,0,1-.951.758,1.917,1.917,0,0,1-.371.1c-.039.007-.078.013-.118.018l-.066.007-.066,0c-.036,0-.072,0-.108,0H437.412a2.034,2.034,0,0,1-2.024-1.922c0-.035,0-.07,0-.1v-5.258c0-.035,0-.069,0-.1a2.033,2.033,0,0,1,2.024-1.922h83.759a1.971,1.971,0,0,1,.357.033,1.881,1.881,0,0,1,.371.1,2.039,2.039,0,0,1,.951.758,2.006,2.006,0,0,1,.347,1.132" transform="translate(-324.907 -241.536)" fill="#ffb93e"/>
        <path id="Path_3091" data-name="Path 3091" d="M482.068,332.977H437.2a1.921,1.921,0,0,1-1.807-1.922c0-.035,0-.07,0-.1v-5.259c0-.034,0-.069,0-.1a1.921,1.921,0,0,1,1.807-1.922h39.362a16.686,16.686,0,0,0,5.492,9.3l.018.015" transform="translate(-324.907 -241.535)" fill="#ffa412"/>
        <rect id="Rectangle_2478" data-name="Rectangle 2478" width="0.952" height="9.311" transform="translate(187.147 82.13)" fill="#ffa412"/>
        <rect id="Rectangle_2479" data-name="Rectangle 2479" width="0.952" height="9.311" transform="translate(183.925 82.13)" fill="#ffa412"/>
        <rect id="Rectangle_2480" data-name="Rectangle 2480" width="0.952" height="9.311" transform="translate(180.061 82.13)" fill="#ffa412"/>
        <rect id="Rectangle_2481" data-name="Rectangle 2481" width="0.952" height="9.311" transform="translate(174.138 82.13)" fill="#ffa412"/>
        <rect id="Rectangle_2482" data-name="Rectangle 2482" width="0.952" height="9.311" transform="translate(167.874 82.13)" fill="#ffa412"/>
        <rect id="Rectangle_2483" data-name="Rectangle 2483" width="0.952" height="9.311" transform="translate(158.272 82.13)" fill="#ffa412"/>
        <rect id="Rectangle_2484" data-name="Rectangle 2484" width="0.952" height="9.311" transform="translate(149.282 82.13)" fill="#ffa412"/>
        <rect id="Rectangle_2485" data-name="Rectangle 2485" width="0.952" height="9.312" transform="translate(141.254 82.13)" fill="#ffa412"/>
        <rect id="Rectangle_2486" data-name="Rectangle 2486" width="0.952" height="9.311" transform="translate(190.214 82.13)" fill="#ffa412"/>
        <rect id="Rectangle_2487" data-name="Rectangle 2487" width="0.952" height="9.311" transform="translate(192.241 82.13)" fill="#ffa412"/>
        <rect id="Rectangle_2488" data-name="Rectangle 2488" width="0.952" height="9.311" transform="translate(194.198 82.13)" fill="#ffa412"/>
        <path id="Path_3092" data-name="Path 3092" d="M772.063,323.7v9.246a1.976,1.976,0,0,1-.357.033h-.595v-9.311h.595a1.981,1.981,0,0,1,.357.032" transform="translate(-575.441 -241.535)" fill="#ffa412"/>
        <path id="Path_3093" data-name="Path 3093" d="M777.275,324.962v7.521a2.04,2.04,0,0,1-.951.758V324.2a2.039,2.039,0,0,1,.951.758" transform="translate(-579.332 -241.937)" fill="#ffa412"/>
        <path id="Path_3094" data-name="Path 3094" d="M523.2,475.215v5.258a2.006,2.006,0,0,1-.347,1.131,2.04,2.04,0,0,1-.951.758,1.9,1.9,0,0,1-.371.1c-.039.007-.078.013-.118.018s-.063.007-.094.009l-.047,0-.1,0H437.412a2.033,2.033,0,0,1-2.024-1.922c0-.035,0-.07,0-.1v-5.258c0-.035,0-.07,0-.1a2.033,2.033,0,0,1,2.024-1.922h83.759c.036,0,.072,0,.108,0a2.007,2.007,0,0,1,.25.029,1.882,1.882,0,0,1,.371.1,1.769,1.769,0,0,1,.176.078c.036.018.07.036.1.056a.029.029,0,0,1,.011.007c.035.02.068.041.1.064a.107.107,0,0,1,.017.011,1.018,1.018,0,0,1,.091.066,1.773,1.773,0,0,1,.2.176c.02.019.039.039.057.06l.01.011c.012.012.024.025.035.038l.007.008c.02.024.04.048.059.074s.055.072.081.11a2.006,2.006,0,0,1,.347,1.131" transform="translate(-324.907 -353.117)" fill="#ffb93e"/>
        <path id="Path_3095" data-name="Path 3095" d="M482.068,482.5H437.2a1.921,1.921,0,0,1-1.807-1.922c0-.035,0-.07,0-.1v-5.258c0-.035,0-.07,0-.1a1.921,1.921,0,0,1,1.807-1.922h39.362c.016.071.032.142.051.215a16.605,16.605,0,0,0,5.441,9.082l.018.015" transform="translate(-324.907 -353.117)" fill="#ffa412"/>
        <rect id="Rectangle_2489" data-name="Rectangle 2489" width="0.952" height="9.311" transform="translate(187.147 120.072)" fill="#ffa412"/>
        <rect id="Rectangle_2490" data-name="Rectangle 2490" width="0.952" height="9.311" transform="translate(183.925 120.072)" fill="#ffa412"/>
        <rect id="Rectangle_2491" data-name="Rectangle 2491" width="0.952" height="9.311" transform="translate(180.061 120.072)" fill="#ffa412"/>
        <rect id="Rectangle_2492" data-name="Rectangle 2492" width="0.952" height="9.311" transform="translate(174.138 120.072)" fill="#ffa412"/>
        <rect id="Rectangle_2493" data-name="Rectangle 2493" width="0.952" height="9.311" transform="translate(167.874 120.072)" fill="#ffa412"/>
        <rect id="Rectangle_2494" data-name="Rectangle 2494" width="0.952" height="9.311" transform="translate(158.272 120.072)" fill="#ffa412"/>
        <rect id="Rectangle_2495" data-name="Rectangle 2495" width="0.952" height="9.311" transform="translate(149.282 120.072)" fill="#ffa412"/>
        <rect id="Rectangle_2496" data-name="Rectangle 2496" width="0.952" height="9.311" transform="translate(141.254 120.072)" fill="#ffa412"/>
        <rect id="Rectangle_2497" data-name="Rectangle 2497" width="0.952" height="9.311" transform="translate(190.214 120.072)" fill="#ffa412"/>
        <rect id="Rectangle_2498" data-name="Rectangle 2498" width="0.952" height="9.311" transform="translate(192.241 120.072)" fill="#ffa412"/>
        <rect id="Rectangle_2499" data-name="Rectangle 2499" width="0.952" height="9.311" transform="translate(194.198 120.072)" fill="#ffa412"/>
        <path id="Path_3096" data-name="Path 3096" d="M772.063,473.221v9.246a1.973,1.973,0,0,1-.357.033h-.595v-9.311h.595a1.984,1.984,0,0,1,.357.032" transform="translate(-575.441 -353.117)" fill="#ffa412"/>
        <path id="Path_3097" data-name="Path 3097" d="M777.275,474.485v7.521a2.039,2.039,0,0,1-.951.758v-9.038a2.039,2.039,0,0,1,.951.758" transform="translate(-579.332 -353.519)" fill="#ffa412"/>
        <path id="Path_3098" data-name="Path 3098" d="M547.465,439.367v5.258a2.006,2.006,0,0,1-.347,1.131,2.037,2.037,0,0,1-.951.758,1.879,1.879,0,0,1-.371.1,1.979,1.979,0,0,1-.357.033H461.681a2,2,0,0,1-.905-.215,2.035,2.035,0,0,1-1.113-1.624c0-.027,0-.055-.006-.083s0-.069,0-.1v-5.258c0-.035,0-.069,0-.1a2.034,2.034,0,0,1,1.784-1.908,1.869,1.869,0,0,1,.24-.014h83.758a1.973,1.973,0,0,1,.357.033,1.891,1.891,0,0,1,.371.1,2.04,2.04,0,0,1,.951.759,2.006,2.006,0,0,1,.347,1.131" transform="translate(-343.017 -326.366)" fill="#ffb93e"/>
        <path id="Path_3099" data-name="Path 3099" d="M506.336,446.652H461.463a1.63,1.63,0,0,1-.807-.215,2.047,2.047,0,0,1-.994-1.624c0-.027,0-.055-.006-.083s0-.069,0-.1v-5.258c0-.035,0-.069,0-.1a1.954,1.954,0,0,1,1.593-1.908,1.488,1.488,0,0,1,.214-.014h39.362l0,.014a16.778,16.778,0,0,0,5.249,9.082c.084.073.17.144.258.215" transform="translate(-343.017 -326.366)" fill="#ffa412"/>
        <rect id="Rectangle_2500" data-name="Rectangle 2500" width="0.952" height="9.311" transform="translate(193.305 110.975)" fill="#ffa412"/>
        <rect id="Rectangle_2501" data-name="Rectangle 2501" width="0.952" height="9.311" transform="translate(190.083 110.975)" fill="#ffa412"/>
        <rect id="Rectangle_2502" data-name="Rectangle 2502" width="0.952" height="9.311" transform="translate(186.218 110.975)" fill="#ffa412"/>
        <rect id="Rectangle_2503" data-name="Rectangle 2503" width="0.952" height="9.311" transform="translate(180.296 110.975)" fill="#ffa412"/>
        <rect id="Rectangle_2504" data-name="Rectangle 2504" width="0.952" height="9.311" transform="translate(174.032 110.975)" fill="#ffa412"/>
        <rect id="Rectangle_2505" data-name="Rectangle 2505" width="0.952" height="9.311" transform="translate(164.43 110.975)" fill="#ffa412"/>
        <rect id="Rectangle_2506" data-name="Rectangle 2506" width="0.952" height="9.311" transform="translate(155.44 110.975)" fill="#ffa412"/>
        <rect id="Rectangle_2507" data-name="Rectangle 2507" width="0.952" height="9.311" transform="translate(147.412 110.975)" fill="#ffa412"/>
        <rect id="Rectangle_2508" data-name="Rectangle 2508" width="0.952" height="9.311" transform="translate(196.372 110.975)" fill="#ffa412"/>
        <rect id="Rectangle_2509" data-name="Rectangle 2509" width="0.952" height="9.311" transform="translate(198.399 110.975)" fill="#ffa412"/>
        <rect id="Rectangle_2510" data-name="Rectangle 2510" width="0.952" height="9.311" transform="translate(200.356 110.975)" fill="#ffa412"/>
        <path id="Path_3100" data-name="Path 3100" d="M796.33,437.371v9.246a1.979,1.979,0,0,1-.357.033h-.6v-9.311h.6a1.973,1.973,0,0,1,.357.033" transform="translate(-593.55 -326.364)" fill="#ffa412"/>
        <path id="Path_3101" data-name="Path 3101" d="M801.542,438.636v7.521a2.039,2.039,0,0,1-.951.758v-9.038a2.041,2.041,0,0,1,.951.758" transform="translate(-597.441 -326.766)" fill="#ffa412"/>
        <path id="Path_3102" data-name="Path 3102" d="M523.2,402.729v5.258a2.007,2.007,0,0,1-.347,1.132,2.04,2.04,0,0,1-.951.758,1.913,1.913,0,0,1-.371.1c-.039.007-.078.013-.118.018l-.066.007-.066,0q-.054,0-.108,0H437.412a2.034,2.034,0,0,1-2.024-1.922c0-.035,0-.069,0-.1v-5.258c0-.035,0-.069,0-.1a2.033,2.033,0,0,1,2.024-1.922h83.759a1.974,1.974,0,0,1,.357.033,1.885,1.885,0,0,1,.371.1,2.039,2.039,0,0,1,.951.758,2.006,2.006,0,0,1,.347,1.131" transform="translate(-324.907 -299.024)" fill="#ffb93e"/>
        <path id="Path_3103" data-name="Path 3103" d="M482.068,410.014H437.2a1.921,1.921,0,0,1-1.807-1.922c0-.035,0-.07,0-.1v-5.259c0-.035,0-.069,0-.1A1.921,1.921,0,0,1,437.2,400.7h39.362a16.686,16.686,0,0,0,5.492,9.3l.018.015" transform="translate(-324.907 -299.024)" fill="#ffa412"/>
        <rect id="Rectangle_2511" data-name="Rectangle 2511" width="0.952" height="9.311" transform="translate(187.147 101.679)" fill="#ffa412"/>
        <rect id="Rectangle_2512" data-name="Rectangle 2512" width="0.952" height="9.311" transform="translate(183.925 101.679)" fill="#ffa412"/>
        <rect id="Rectangle_2513" data-name="Rectangle 2513" width="0.952" height="9.311" transform="translate(180.061 101.679)" fill="#ffa412"/>
        <rect id="Rectangle_2514" data-name="Rectangle 2514" width="0.952" height="9.311" transform="translate(174.138 101.679)" fill="#ffa412"/>
        <rect id="Rectangle_2515" data-name="Rectangle 2515" width="0.952" height="9.311" transform="translate(167.874 101.679)" fill="#ffa412"/>
        <rect id="Rectangle_2516" data-name="Rectangle 2516" width="0.952" height="9.311" transform="translate(158.272 101.679)" fill="#ffa412"/>
        <rect id="Rectangle_2517" data-name="Rectangle 2517" width="0.952" height="9.311" transform="translate(149.282 101.679)" fill="#ffa412"/>
        <rect id="Rectangle_2518" data-name="Rectangle 2518" width="0.952" height="9.312" transform="translate(141.254 101.678)" fill="#ffa412"/>
        <rect id="Rectangle_2519" data-name="Rectangle 2519" width="0.952" height="9.311" transform="translate(190.214 101.679)" fill="#ffa412"/>
        <rect id="Rectangle_2520" data-name="Rectangle 2520" width="0.952" height="9.311" transform="translate(192.241 101.679)" fill="#ffa412"/>
        <rect id="Rectangle_2521" data-name="Rectangle 2521" width="0.952" height="9.311" transform="translate(194.198 101.679)" fill="#ffa412"/>
        <path id="Path_3104" data-name="Path 3104" d="M772.063,400.734v9.246a1.976,1.976,0,0,1-.357.033h-.595V400.7h.595a1.976,1.976,0,0,1,.357.032" transform="translate(-575.441 -299.024)" fill="#ffa412"/>
        <path id="Path_3105" data-name="Path 3105" d="M777.275,402v7.521a2.04,2.04,0,0,1-.951.758V401.24a2.038,2.038,0,0,1,.951.758" transform="translate(-579.332 -299.425)" fill="#ffa412"/>
        <path id="Path_3106" data-name="Path 3106" d="M523.2,551.857v5.259a2.007,2.007,0,0,1-.347,1.131,2.041,2.041,0,0,1-.951.758,1.9,1.9,0,0,1-.371.1c-.039.007-.078.014-.118.018s-.063.007-.094.009l-.047,0-.1,0H437.412a2.033,2.033,0,0,1-2.024-1.922c0-.035,0-.07,0-.1v-5.259c0-.035,0-.069,0-.1a2.033,2.033,0,0,1,2.024-1.922h83.759q.054,0,.108,0a2,2,0,0,1,.25.029,1.886,1.886,0,0,1,.371.1,1.769,1.769,0,0,1,.176.078c.036.018.07.036.1.056a.028.028,0,0,1,.011.006c.035.02.068.041.1.064l.017.011a1.053,1.053,0,0,1,.091.066,1.792,1.792,0,0,1,.2.176c.02.019.039.039.057.06l.01.011a.515.515,0,0,1,.035.038l.007.008c.02.024.04.048.059.074s.055.072.081.11a2.007,2.007,0,0,1,.347,1.131" transform="translate(-324.907 -410.311)" fill="#ffb93e"/>
        <path id="Path_3107" data-name="Path 3107" d="M482.068,559.142H437.2a1.921,1.921,0,0,1-1.807-1.922c0-.035,0-.07,0-.1v-5.259c0-.035,0-.069,0-.1a1.921,1.921,0,0,1,1.807-1.922h39.362c.016.071.032.142.051.215a16.606,16.606,0,0,0,5.441,9.082l.018.015" transform="translate(-324.907 -410.311)" fill="#ffa412"/>
        <rect id="Rectangle_2522" data-name="Rectangle 2522" width="0.952" height="9.311" transform="translate(187.147 139.52)" fill="#ffa412"/>
        <rect id="Rectangle_2523" data-name="Rectangle 2523" width="0.952" height="9.311" transform="translate(183.925 139.52)" fill="#ffa412"/>
        <rect id="Rectangle_2524" data-name="Rectangle 2524" width="0.952" height="9.311" transform="translate(180.061 139.52)" fill="#ffa412"/>
        <rect id="Rectangle_2525" data-name="Rectangle 2525" width="0.952" height="9.311" transform="translate(174.138 139.52)" fill="#ffa412"/>
        <rect id="Rectangle_2526" data-name="Rectangle 2526" width="0.952" height="9.311" transform="translate(167.874 139.52)" fill="#ffa412"/>
        <rect id="Rectangle_2527" data-name="Rectangle 2527" width="0.952" height="9.311" transform="translate(158.272 139.52)" fill="#ffa412"/>
        <rect id="Rectangle_2528" data-name="Rectangle 2528" width="0.952" height="9.311" transform="translate(149.282 139.52)" fill="#ffa412"/>
        <rect id="Rectangle_2529" data-name="Rectangle 2529" width="0.952" height="9.311" transform="translate(141.254 139.52)" fill="#ffa412"/>
        <rect id="Rectangle_2530" data-name="Rectangle 2530" width="0.952" height="9.311" transform="translate(190.214 139.52)" fill="#ffa412"/>
        <rect id="Rectangle_2531" data-name="Rectangle 2531" width="0.952" height="9.311" transform="translate(192.241 139.52)" fill="#ffa412"/>
        <rect id="Rectangle_2532" data-name="Rectangle 2532" width="0.952" height="9.311" transform="translate(194.198 139.52)" fill="#ffa412"/>
        <path id="Path_3108" data-name="Path 3108" d="M772.063,549.864v9.246a1.973,1.973,0,0,1-.357.032h-.595v-9.311h.595a1.973,1.973,0,0,1,.357.033" transform="translate(-575.441 -410.311)" fill="#ffa412"/>
        <path id="Path_3109" data-name="Path 3109" d="M777.275,551.127v7.521a2.04,2.04,0,0,1-.951.758v-9.038a2.038,2.038,0,0,1,.951.758" transform="translate(-579.332 -410.713)" fill="#ffa412"/>
        <path id="Path_3110" data-name="Path 3110" d="M547.465,516.009v5.259a2.006,2.006,0,0,1-.347,1.131,2.038,2.038,0,0,1-.951.758,1.874,1.874,0,0,1-.371.1,1.973,1.973,0,0,1-.357.032H461.681a2,2,0,0,1-.905-.215,2.035,2.035,0,0,1-1.113-1.624c0-.027,0-.055-.006-.083s0-.069,0-.1v-5.259c0-.035,0-.069,0-.1A2.034,2.034,0,0,1,461.441,514a1.869,1.869,0,0,1,.24-.014h83.758a1.979,1.979,0,0,1,.357.032,1.9,1.9,0,0,1,.371.1,2.039,2.039,0,0,1,.951.759,2.006,2.006,0,0,1,.347,1.131" transform="translate(-343.017 -383.56)" fill="#ffb93e"/>
        <path id="Path_3111" data-name="Path 3111" d="M506.336,523.294H461.463a1.63,1.63,0,0,1-.807-.215,2.047,2.047,0,0,1-.994-1.624c0-.027,0-.055-.006-.083s0-.069,0-.1v-5.259c0-.035,0-.069,0-.1A1.954,1.954,0,0,1,461.249,514a1.488,1.488,0,0,1,.214-.014h39.362l0,.014a16.779,16.779,0,0,0,5.249,9.082c.084.073.17.144.258.215" transform="translate(-343.017 -383.56)" fill="#ffa412"/>
        <rect id="Rectangle_2533" data-name="Rectangle 2533" width="0.952" height="9.311" transform="translate(193.305 130.423)" fill="#ffa412"/>
        <rect id="Rectangle_2534" data-name="Rectangle 2534" width="0.952" height="9.311" transform="translate(190.083 130.423)" fill="#ffa412"/>
        <rect id="Rectangle_2535" data-name="Rectangle 2535" width="0.952" height="9.311" transform="translate(186.218 130.423)" fill="#ffa412"/>
        <rect id="Rectangle_2536" data-name="Rectangle 2536" width="0.952" height="9.311" transform="translate(180.296 130.423)" fill="#ffa412"/>
        <rect id="Rectangle_2537" data-name="Rectangle 2537" width="0.952" height="9.311" transform="translate(174.032 130.423)" fill="#ffa412"/>
        <rect id="Rectangle_2538" data-name="Rectangle 2538" width="0.952" height="9.311" transform="translate(164.43 130.423)" fill="#ffa412"/>
        <rect id="Rectangle_2539" data-name="Rectangle 2539" width="0.952" height="9.311" transform="translate(155.44 130.423)" fill="#ffa412"/>
        <rect id="Rectangle_2540" data-name="Rectangle 2540" width="0.952" height="9.311" transform="translate(147.412 130.423)" fill="#ffa412"/>
        <rect id="Rectangle_2541" data-name="Rectangle 2541" width="0.952" height="9.311" transform="translate(196.372 130.423)" fill="#ffa412"/>
        <rect id="Rectangle_2542" data-name="Rectangle 2542" width="0.952" height="9.311" transform="translate(198.399 130.423)" fill="#ffa412"/>
        <rect id="Rectangle_2543" data-name="Rectangle 2543" width="0.952" height="9.311" transform="translate(200.356 130.423)" fill="#ffa412"/>
        <path id="Path_3112" data-name="Path 3112" d="M796.33,514.013v9.246a1.973,1.973,0,0,1-.357.032h-.6v-9.311h.6a1.984,1.984,0,0,1,.357.032" transform="translate(-593.55 -383.558)" fill="#ffa412"/>
        <path id="Path_3113" data-name="Path 3113" d="M801.542,515.278V522.8a2.039,2.039,0,0,1-.951.758V514.52a2.04,2.04,0,0,1,.951.758" transform="translate(-597.441 -383.96)" fill="#ffa412"/>
        <path id="Path_3114" data-name="Path 3114" d="M523.2,479.371v5.258a2.007,2.007,0,0,1-.347,1.132,2.041,2.041,0,0,1-.951.758,1.913,1.913,0,0,1-.371.1c-.039.007-.078.013-.118.018l-.066.007-.066,0c-.036,0-.072,0-.108,0H437.412a2.034,2.034,0,0,1-2.024-1.922c0-.035,0-.07,0-.1v-5.258c0-.035,0-.069,0-.1a2.033,2.033,0,0,1,2.024-1.922h83.759a1.979,1.979,0,0,1,.357.032,1.883,1.883,0,0,1,.371.1,2.039,2.039,0,0,1,.951.758,2.006,2.006,0,0,1,.347,1.131" transform="translate(-324.907 -356.218)" fill="#ffb93e"/>
        <path id="Path_3115" data-name="Path 3115" d="M482.068,486.656H437.2a1.921,1.921,0,0,1-1.807-1.922c0-.035,0-.07,0-.1V479.37c0-.035,0-.069,0-.1a1.921,1.921,0,0,1,1.807-1.922h39.362a16.686,16.686,0,0,0,5.492,9.3l.018.015" transform="translate(-324.907 -356.218)" fill="#ffa412"/>
        <rect id="Rectangle_2544" data-name="Rectangle 2544" width="0.952" height="9.311" transform="translate(187.147 121.127)" fill="#ffa412"/>
        <rect id="Rectangle_2545" data-name="Rectangle 2545" width="0.952" height="9.311" transform="translate(183.925 121.127)" fill="#ffa412"/>
        <rect id="Rectangle_2546" data-name="Rectangle 2546" width="0.952" height="9.311" transform="translate(180.061 121.127)" fill="#ffa412"/>
        <rect id="Rectangle_2547" data-name="Rectangle 2547" width="0.952" height="9.311" transform="translate(174.138 121.127)" fill="#ffa412"/>
        <rect id="Rectangle_2548" data-name="Rectangle 2548" width="0.952" height="9.311" transform="translate(167.874 121.127)" fill="#ffa412"/>
        <rect id="Rectangle_2549" data-name="Rectangle 2549" width="0.952" height="9.311" transform="translate(158.272 121.127)" fill="#ffa412"/>
        <rect id="Rectangle_2550" data-name="Rectangle 2550" width="0.952" height="9.311" transform="translate(149.282 121.127)" fill="#ffa412"/>
        <rect id="Rectangle_2551" data-name="Rectangle 2551" width="0.952" height="9.312" transform="translate(141.254 121.126)" fill="#ffa412"/>
        <rect id="Rectangle_2552" data-name="Rectangle 2552" width="0.952" height="9.311" transform="translate(190.214 121.127)" fill="#ffa412"/>
        <rect id="Rectangle_2553" data-name="Rectangle 2553" width="0.952" height="9.311" transform="translate(192.241 121.127)" fill="#ffa412"/>
        <rect id="Rectangle_2554" data-name="Rectangle 2554" width="0.952" height="9.311" transform="translate(194.198 121.127)" fill="#ffa412"/>
        <path id="Path_3116" data-name="Path 3116" d="M772.063,477.376v9.246a1.973,1.973,0,0,1-.357.033h-.595v-9.311h.595a1.979,1.979,0,0,1,.357.032" transform="translate(-575.441 -356.218)" fill="#ffa412"/>
        <path id="Path_3117" data-name="Path 3117" d="M777.275,478.64v7.521a2.04,2.04,0,0,1-.951.758v-9.038a2.039,2.039,0,0,1,.951.758" transform="translate(-579.332 -356.619)" fill="#ffa412"/>
        <path id="Path_3118" data-name="Path 3118" d="M547.466,548.548v5.258a2.006,2.006,0,0,1-.347,1.132,2.04,2.04,0,0,1-.951.758,1.9,1.9,0,0,1-.371.1c-.039.007-.078.013-.118.018s-.063.007-.094.009l-.047,0-.1,0H461.68a2.033,2.033,0,0,1-2.024-1.922c0-.035,0-.069,0-.1v-5.258c0-.035,0-.07,0-.1a2.033,2.033,0,0,1,2.024-1.922h83.759c.036,0,.072,0,.108,0a2.008,2.008,0,0,1,.25.029,1.885,1.885,0,0,1,.371.1,1.762,1.762,0,0,1,.176.078c.036.018.071.036.1.056a.029.029,0,0,1,.011.007c.035.02.068.041.1.064a.092.092,0,0,1,.017.011.986.986,0,0,1,.091.066,1.771,1.771,0,0,1,.2.176c.02.019.039.039.057.06l.01.011c.012.013.024.025.035.038l.007.008c.02.024.04.048.059.074s.055.072.08.11a2.007,2.007,0,0,1,.347,1.132" transform="translate(-343.017 -407.842)" fill="#ffb93e"/>
        <path id="Path_3119" data-name="Path 3119" d="M506.336,555.833H461.463a1.921,1.921,0,0,1-1.807-1.922c0-.035,0-.069,0-.1v-5.258c0-.035,0-.07,0-.1a1.921,1.921,0,0,1,1.807-1.922h39.362c.016.07.033.142.052.215a16.6,16.6,0,0,0,5.441,9.082l.018.015" transform="translate(-343.017 -407.842)" fill="#ffa412"/>
        <rect id="Rectangle_2555" data-name="Rectangle 2555" width="0.952" height="9.311" transform="translate(193.305 138.68)" fill="#ffa412"/>
        <rect id="Rectangle_2556" data-name="Rectangle 2556" width="0.952" height="9.311" transform="translate(190.083 138.68)" fill="#ffa412"/>
        <rect id="Rectangle_2557" data-name="Rectangle 2557" width="0.952" height="9.311" transform="translate(186.218 138.68)" fill="#ffa412"/>
        <rect id="Rectangle_2558" data-name="Rectangle 2558" width="0.952" height="9.311" transform="translate(180.296 138.68)" fill="#ffa412"/>
        <rect id="Rectangle_2559" data-name="Rectangle 2559" width="0.952" height="9.311" transform="translate(174.032 138.68)" fill="#ffa412"/>
        <rect id="Rectangle_2560" data-name="Rectangle 2560" width="0.952" height="9.311" transform="translate(164.43 138.68)" fill="#ffa412"/>
        <rect id="Rectangle_2561" data-name="Rectangle 2561" width="0.952" height="9.311" transform="translate(155.44 138.68)" fill="#ffa412"/>
        <rect id="Rectangle_2562" data-name="Rectangle 2562" width="0.952" height="9.311" transform="translate(147.412 138.68)" fill="#ffa412"/>
        <rect id="Rectangle_2563" data-name="Rectangle 2563" width="0.952" height="9.311" transform="translate(196.373 138.68)" fill="#ffa412"/>
        <rect id="Rectangle_2564" data-name="Rectangle 2564" width="0.952" height="9.311" transform="translate(198.399 138.68)" fill="#ffa412"/>
        <rect id="Rectangle_2565" data-name="Rectangle 2565" width="0.952" height="9.311" transform="translate(200.356 138.68)" fill="#ffa412"/>
        <path id="Path_3120" data-name="Path 3120" d="M796.331,546.554V555.8a1.973,1.973,0,0,1-.357.032h-.595v-9.311h.595a1.973,1.973,0,0,1,.357.032" transform="translate(-593.551 -407.842)" fill="#ffa412"/>
        <path id="Path_3121" data-name="Path 3121" d="M801.543,547.818v7.521a2.039,2.039,0,0,1-.951.758V547.06a2.039,2.039,0,0,1,.951.758" transform="translate(-597.441 -408.243)" fill="#ffa412"/>
        <path id="Path_3122" data-name="Path 3122" d="M588.49,512.7v5.259a2.006,2.006,0,0,1-.347,1.131,2.037,2.037,0,0,1-.951.758,1.876,1.876,0,0,1-.371.1,1.979,1.979,0,0,1-.357.032H502.7a2,2,0,0,1-.905-.215,2.035,2.035,0,0,1-1.113-1.625c0-.027,0-.055-.006-.083s0-.069,0-.1V512.7c0-.035,0-.069,0-.1a2.034,2.034,0,0,1,1.785-1.908,1.863,1.863,0,0,1,.24-.014h83.758a1.979,1.979,0,0,1,.357.032,1.892,1.892,0,0,1,.371.1,2.039,2.039,0,0,1,.951.758,2.005,2.005,0,0,1,.347,1.131" transform="translate(-373.631 -381.091)" fill="#ffb93e"/>
        <path id="Path_3123" data-name="Path 3123" d="M547.361,519.986H502.488a1.629,1.629,0,0,1-.807-.215,2.047,2.047,0,0,1-.994-1.625c0-.027,0-.055-.006-.083s0-.069,0-.1V512.7c0-.035,0-.069,0-.1a1.954,1.954,0,0,1,1.593-1.908,1.488,1.488,0,0,1,.214-.014H541.85l0,.014a16.779,16.779,0,0,0,5.249,9.082c.084.073.17.144.258.215" transform="translate(-373.632 -381.091)" fill="#ffa412"/>
        <rect id="Rectangle_2566" data-name="Rectangle 2566" width="0.952" height="9.311" transform="translate(203.715 129.584)" fill="#ffa412"/>
        <rect id="Rectangle_2567" data-name="Rectangle 2567" width="0.952" height="9.311" transform="translate(200.493 129.584)" fill="#ffa412"/>
        <rect id="Rectangle_2568" data-name="Rectangle 2568" width="0.952" height="9.311" transform="translate(196.628 129.584)" fill="#ffa412"/>
        <rect id="Rectangle_2569" data-name="Rectangle 2569" width="0.952" height="9.311" transform="translate(190.706 129.584)" fill="#ffa412"/>
        <rect id="Rectangle_2570" data-name="Rectangle 2570" width="0.952" height="9.311" transform="translate(184.442 129.584)" fill="#ffa412"/>
        <rect id="Rectangle_2571" data-name="Rectangle 2571" width="0.952" height="9.311" transform="translate(174.84 129.584)" fill="#ffa412"/>
        <rect id="Rectangle_2572" data-name="Rectangle 2572" width="0.952" height="9.311" transform="translate(165.85 129.584)" fill="#ffa412"/>
        <rect id="Rectangle_2573" data-name="Rectangle 2573" width="0.952" height="9.311" transform="translate(157.822 129.584)" fill="#ffa412"/>
        <rect id="Rectangle_2574" data-name="Rectangle 2574" width="0.952" height="9.311" transform="translate(206.783 129.584)" fill="#ffa412"/>
        <rect id="Rectangle_2575" data-name="Rectangle 2575" width="0.952" height="9.311" transform="translate(208.809 129.584)" fill="#ffa412"/>
        <rect id="Rectangle_2576" data-name="Rectangle 2576" width="0.952" height="9.311" transform="translate(210.765 129.584)" fill="#ffa412"/>
        <path id="Path_3124" data-name="Path 3124" d="M837.355,510.705v9.246a1.968,1.968,0,0,1-.357.033h-.6v-9.311h.6a1.979,1.979,0,0,1,.357.032" transform="translate(-624.165 -381.089)" fill="#ffa412"/>
        <path id="Path_3125" data-name="Path 3125" d="M842.567,511.97v7.521a2.039,2.039,0,0,1-.951.758v-9.038a2.041,2.041,0,0,1,.951.758" transform="translate(-628.056 -381.492)" fill="#ffa412"/>
        <path id="Path_3126" data-name="Path 3126" d="M576.356,476.063v5.258a2.006,2.006,0,0,1-.347,1.131,2.04,2.04,0,0,1-.951.758,1.924,1.924,0,0,1-.371.1c-.039.007-.078.013-.118.018l-.066.007-.066,0c-.036,0-.072,0-.108,0H490.57a2.034,2.034,0,0,1-2.024-1.922c0-.035,0-.07,0-.1v-5.258c0-.035,0-.069,0-.1a2.033,2.033,0,0,1,2.024-1.922h83.759a1.979,1.979,0,0,1,.357.032,1.885,1.885,0,0,1,.371.1,2.038,2.038,0,0,1,.951.758,2.006,2.006,0,0,1,.347,1.131" transform="translate(-364.576 -353.75)" fill="#ffb93e"/>
        <path id="Path_3127" data-name="Path 3127" d="M535.226,483.349H490.353a1.921,1.921,0,0,1-1.807-1.922c0-.035,0-.07,0-.1v-5.259c0-.035,0-.069,0-.1a1.921,1.921,0,0,1,1.807-1.922h39.362a16.687,16.687,0,0,0,5.492,9.3l.018.015" transform="translate(-364.576 -353.75)" fill="#ffa412"/>
        <rect id="Rectangle_2577" data-name="Rectangle 2577" width="0.952" height="9.311" transform="translate(200.636 120.287)" fill="#ffa412"/>
        <rect id="Rectangle_2578" data-name="Rectangle 2578" width="0.952" height="9.311" transform="translate(197.414 120.287)" fill="#ffa412"/>
        <rect id="Rectangle_2579" data-name="Rectangle 2579" width="0.952" height="9.311" transform="translate(193.549 120.287)" fill="#ffa412"/>
        <rect id="Rectangle_2580" data-name="Rectangle 2580" width="0.952" height="9.311" transform="translate(187.627 120.287)" fill="#ffa412"/>
        <rect id="Rectangle_2581" data-name="Rectangle 2581" width="0.952" height="9.311" transform="translate(181.363 120.287)" fill="#ffa412"/>
        <rect id="Rectangle_2582" data-name="Rectangle 2582" width="0.952" height="9.311" transform="translate(171.761 120.287)" fill="#ffa412"/>
        <rect id="Rectangle_2583" data-name="Rectangle 2583" width="0.952" height="9.311" transform="translate(162.771 120.287)" fill="#ffa412"/>
        <rect id="Rectangle_2584" data-name="Rectangle 2584" width="0.952" height="9.312" transform="translate(154.743 120.287)" fill="#ffa412"/>
        <rect id="Rectangle_2585" data-name="Rectangle 2585" width="0.952" height="9.311" transform="translate(203.703 120.287)" fill="#ffa412"/>
        <rect id="Rectangle_2586" data-name="Rectangle 2586" width="0.952" height="9.311" transform="translate(205.73 120.287)" fill="#ffa412"/>
        <rect id="Rectangle_2587" data-name="Rectangle 2587" width="0.952" height="9.311" transform="translate(207.687 120.287)" fill="#ffa412"/>
        <path id="Path_3128" data-name="Path 3128" d="M825.221,474.069v9.246a1.978,1.978,0,0,1-.357.033h-.595v-9.311h.595a1.973,1.973,0,0,1,.357.033" transform="translate(-615.11 -353.749)" fill="#ffa412"/>
        <path id="Path_3129" data-name="Path 3129" d="M830.434,475.333v7.521a2.038,2.038,0,0,1-.951.758v-9.038a2.039,2.039,0,0,1,.951.758" transform="translate(-619.001 -354.151)" fill="#ffa412"/>
        <path id="Path_3130" data-name="Path 3130" d="M535.332,445.336v5.258a2.007,2.007,0,0,1-.347,1.131,2.041,2.041,0,0,1-.951.758,1.9,1.9,0,0,1-.371.1c-.039.007-.078.013-.118.018s-.063.007-.094.009l-.047,0-.1,0H449.546a2.033,2.033,0,0,1-2.024-1.922c0-.035,0-.07,0-.1v-5.258c0-.035,0-.07,0-.1a2.033,2.033,0,0,1,2.024-1.922h83.759q.054,0,.108,0a2.009,2.009,0,0,1,.25.029,1.88,1.88,0,0,1,.371.1,1.709,1.709,0,0,1,.176.078c.036.018.07.036.1.056a.029.029,0,0,1,.011.007c.035.02.068.041.1.064a.1.1,0,0,1,.017.011,1,1,0,0,1,.091.066,1.762,1.762,0,0,1,.2.176c.02.019.039.039.057.06l.01.011a.5.5,0,0,1,.035.038l.007.008c.02.024.04.048.059.074s.055.072.08.11a2.006,2.006,0,0,1,.347,1.131" transform="translate(-333.962 -330.82)" fill="#ffb93e"/>
        <path id="Path_3131" data-name="Path 3131" d="M494.2,452.621H449.329a1.921,1.921,0,0,1-1.807-1.922c0-.035,0-.07,0-.1v-5.258c0-.035,0-.07,0-.1a1.921,1.921,0,0,1,1.807-1.922h39.362c.016.071.032.142.052.215a16.605,16.605,0,0,0,5.441,9.082l.018.015" transform="translate(-333.962 -330.82)" fill="#ffa412"/>
        <rect id="Rectangle_2588" data-name="Rectangle 2588" width="0.952" height="9.311" transform="translate(190.226 112.49)" fill="#ffa412"/>
        <rect id="Rectangle_2589" data-name="Rectangle 2589" width="0.952" height="9.311" transform="translate(187.004 112.49)" fill="#ffa412"/>
        <rect id="Rectangle_2590" data-name="Rectangle 2590" width="0.952" height="9.311" transform="translate(183.14 112.49)" fill="#ffa412"/>
        <rect id="Rectangle_2591" data-name="Rectangle 2591" width="0.952" height="9.311" transform="translate(177.217 112.49)" fill="#ffa412"/>
        <rect id="Rectangle_2592" data-name="Rectangle 2592" width="0.952" height="9.311" transform="translate(170.953 112.49)" fill="#ffa412"/>
        <rect id="Rectangle_2593" data-name="Rectangle 2593" width="0.952" height="9.311" transform="translate(161.351 112.49)" fill="#ffa412"/>
        <rect id="Rectangle_2594" data-name="Rectangle 2594" width="0.952" height="9.311" transform="translate(152.361 112.49)" fill="#ffa412"/>
        <rect id="Rectangle_2595" data-name="Rectangle 2595" width="0.952" height="9.311" transform="translate(144.333 112.49)" fill="#ffa412"/>
        <rect id="Rectangle_2596" data-name="Rectangle 2596" width="0.952" height="9.311" transform="translate(193.293 112.49)" fill="#ffa412"/>
        <rect id="Rectangle_2597" data-name="Rectangle 2597" width="0.952" height="9.311" transform="translate(195.32 112.49)" fill="#ffa412"/>
        <rect id="Rectangle_2598" data-name="Rectangle 2598" width="0.952" height="9.311" transform="translate(197.277 112.49)" fill="#ffa412"/>
        <path id="Path_3132" data-name="Path 3132" d="M784.2,443.342v9.246a1.98,1.98,0,0,1-.357.032h-.595V443.31h.595a1.98,1.98,0,0,1,.357.033" transform="translate(-584.496 -330.82)" fill="#ffa412"/>
        <path id="Path_3133" data-name="Path 3133" d="M789.409,444.606v7.521a2.04,2.04,0,0,1-.951.758v-9.038a2.04,2.04,0,0,1,.951.758" transform="translate(-588.386 -331.221)" fill="#ffa412"/>
        <path id="Path_3134" data-name="Path 3134" d="M559.6,409.488v5.258a2.005,2.005,0,0,1-.347,1.131,2.038,2.038,0,0,1-.951.758,1.882,1.882,0,0,1-.371.1,1.979,1.979,0,0,1-.357.032H473.815a2,2,0,0,1-.905-.215,2.035,2.035,0,0,1-1.113-1.625c0-.027,0-.055-.006-.083s0-.069,0-.1v-5.258c0-.035,0-.069,0-.1a2.034,2.034,0,0,1,1.785-1.908,1.859,1.859,0,0,1,.24-.014h83.758a1.982,1.982,0,0,1,.357.033,1.9,1.9,0,0,1,.371.1,2.04,2.04,0,0,1,.951.758,2.005,2.005,0,0,1,.347,1.132" transform="translate(-352.072 -304.068)" fill="#ffb93e"/>
        <path id="Path_3135" data-name="Path 3135" d="M518.47,416.773H473.6a1.631,1.631,0,0,1-.808-.215,2.048,2.048,0,0,1-.994-1.625c0-.027,0-.055-.006-.083s0-.069,0-.1v-5.258c0-.035,0-.069,0-.1a1.955,1.955,0,0,1,1.593-1.908,1.481,1.481,0,0,1,.214-.014h39.362l0,.014a16.779,16.779,0,0,0,5.249,9.082c.084.073.17.144.258.215" transform="translate(-352.072 -304.068)" fill="#ffa412"/>
        <rect id="Rectangle_2599" data-name="Rectangle 2599" width="0.952" height="9.311" transform="translate(196.384 103.394)" fill="#ffa412"/>
        <rect id="Rectangle_2600" data-name="Rectangle 2600" width="0.952" height="9.311" transform="translate(193.162 103.394)" fill="#ffa412"/>
        <rect id="Rectangle_2601" data-name="Rectangle 2601" width="0.952" height="9.311" transform="translate(189.298 103.394)" fill="#ffa412"/>
        <rect id="Rectangle_2602" data-name="Rectangle 2602" width="0.952" height="9.311" transform="translate(183.375 103.394)" fill="#ffa412"/>
        <rect id="Rectangle_2603" data-name="Rectangle 2603" width="0.952" height="9.311" transform="translate(177.111 103.394)" fill="#ffa412"/>
        <rect id="Rectangle_2604" data-name="Rectangle 2604" width="0.952" height="9.311" transform="translate(167.509 103.394)" fill="#ffa412"/>
        <rect id="Rectangle_2605" data-name="Rectangle 2605" width="0.952" height="9.311" transform="translate(158.519 103.394)" fill="#ffa412"/>
        <rect id="Rectangle_2606" data-name="Rectangle 2606" width="0.952" height="9.311" transform="translate(150.491 103.394)" fill="#ffa412"/>
        <rect id="Rectangle_2607" data-name="Rectangle 2607" width="0.952" height="9.311" transform="translate(199.451 103.394)" fill="#ffa412"/>
        <rect id="Rectangle_2608" data-name="Rectangle 2608" width="0.952" height="9.311" transform="translate(201.478 103.394)" fill="#ffa412"/>
        <rect id="Rectangle_2609" data-name="Rectangle 2609" width="0.952" height="9.311" transform="translate(203.435 103.394)" fill="#ffa412"/>
        <path id="Path_3136" data-name="Path 3136" d="M808.464,407.493v9.246a1.975,1.975,0,0,1-.357.033h-.6v-9.311h.6a1.981,1.981,0,0,1,.357.032" transform="translate(-602.606 -304.068)" fill="#ffa412"/>
        <path id="Path_3137" data-name="Path 3137" d="M813.677,408.757v7.521a2.04,2.04,0,0,1-.951.758V408a2.042,2.042,0,0,1,.951.758" transform="translate(-606.496 -304.469)" fill="#ffa412"/>
        <path id="Path_3138" data-name="Path 3138" d="M535.332,372.85v5.259a2.006,2.006,0,0,1-.347,1.131,2.04,2.04,0,0,1-.951.758,1.908,1.908,0,0,1-.371.1c-.039.007-.078.013-.118.018l-.066.007-.066,0q-.054,0-.108,0H449.546a2.034,2.034,0,0,1-2.024-1.922c0-.035,0-.07,0-.1V372.85c0-.035,0-.069,0-.1a2.033,2.033,0,0,1,2.024-1.922h83.759a1.982,1.982,0,0,1,.357.032,1.889,1.889,0,0,1,.371.1,2.038,2.038,0,0,1,.951.758,2.006,2.006,0,0,1,.347,1.131" transform="translate(-333.962 -276.727)" fill="#ffb93e"/>
        <path id="Path_3139" data-name="Path 3139" d="M494.2,380.135H449.329a1.921,1.921,0,0,1-1.807-1.922c0-.035,0-.07,0-.1v-5.259c0-.034,0-.069,0-.1a1.921,1.921,0,0,1,1.807-1.922h39.362a16.686,16.686,0,0,0,5.492,9.3l.018.015" transform="translate(-333.962 -276.727)" fill="#ffa412"/>
        <rect id="Rectangle_2610" data-name="Rectangle 2610" width="0.952" height="9.311" transform="translate(190.226 94.097)" fill="#ffa412"/>
        <rect id="Rectangle_2611" data-name="Rectangle 2611" width="0.952" height="9.311" transform="translate(187.004 94.097)" fill="#ffa412"/>
        <rect id="Rectangle_2612" data-name="Rectangle 2612" width="0.952" height="9.311" transform="translate(183.14 94.097)" fill="#ffa412"/>
        <rect id="Rectangle_2613" data-name="Rectangle 2613" width="0.952" height="9.311" transform="translate(177.217 94.097)" fill="#ffa412"/>
        <rect id="Rectangle_2614" data-name="Rectangle 2614" width="0.952" height="9.311" transform="translate(170.953 94.097)" fill="#ffa412"/>
        <rect id="Rectangle_2615" data-name="Rectangle 2615" width="0.952" height="9.311" transform="translate(161.351 94.097)" fill="#ffa412"/>
        <rect id="Rectangle_2616" data-name="Rectangle 2616" width="0.952" height="9.311" transform="translate(152.361 94.097)" fill="#ffa412"/>
        <rect id="Rectangle_2617" data-name="Rectangle 2617" width="0.952" height="9.312" transform="translate(144.333 94.097)" fill="#ffa412"/>
        <rect id="Rectangle_2618" data-name="Rectangle 2618" width="0.952" height="9.311" transform="translate(193.293 94.097)" fill="#ffa412"/>
        <rect id="Rectangle_2619" data-name="Rectangle 2619" width="0.952" height="9.311" transform="translate(195.32 94.097)" fill="#ffa412"/>
        <rect id="Rectangle_2620" data-name="Rectangle 2620" width="0.952" height="9.311" transform="translate(197.277 94.097)" fill="#ffa412"/>
        <path id="Path_3140" data-name="Path 3140" d="M784.2,370.855V380.1a1.98,1.98,0,0,1-.357.033h-.595v-9.311h.595a1.98,1.98,0,0,1,.357.032" transform="translate(-584.496 -276.727)" fill="#ffa412"/>
        <path id="Path_3141" data-name="Path 3141" d="M789.409,372.119v7.521a2.038,2.038,0,0,1-.951.758v-9.038a2.04,2.04,0,0,1,.951.758" transform="translate(-588.386 -277.128)" fill="#ffa412"/>
        <path id="Path_3142" data-name="Path 3142" d="M505.609,114.606,464.872,69.141a7.168,7.168,0,0,0-12.506,4.783V188.486s53.243,7.384,53.243,0Z" transform="translate(-337.578 -49.806)" fill="#35488b"/>
        <path id="Path_3143" data-name="Path 3143" d="M378.512,210.142l17.841-2.28a94.106,94.106,0,0,1,1.05-25.849,90.7,90.7,0,0,1,14.448-36.353c14.492-20.984,59.568-34.251,59.568-34.251l-.109-2.634-1.645-.11a6.528,6.528,0,0,1,1.605-.845l-.257-6.228a22.038,22.038,0,0,0-5.155.721A35.393,35.393,0,0,1,471,101.169l-.135-3.274c-65.9,4.49-85.774,45.232-91.243,76.353a123.6,123.6,0,0,0-1.1,35.895" transform="translate(-281.867 -73.054)" fill="#82b378"/>
        <path id="Path_3144" data-name="Path 3144" d="M71.12,134.532l78.6,2.554c-.093-12.086,2.541-24.7,5.2-34.286a160.633,160.633,0,0,1,5.336-16.156C181.57,34.313,242.066,24.84,242.066,24.84L173.46,0c-32.49,3.8-54.708,20.4-69.888,40.711C73.841,80.5,71.12,134.532,71.12,134.532" transform="translate(-53.073 0.001)" fill="#a8d29f"/>
        <g id="Group_3848" data-name="Group 3848" transform="translate(18.047 40.711)" opacity="0.5">
          <g id="Group_3847" data-name="Group 3847">
            <g id="Group_3846" data-name="Group 3846" clip-path="url(#clip-path-3)">
              <path id="Path_3145" data-name="Path 3145" d="M71.12,254.26l78.6,2.555,17.841-2.28a94.115,94.115,0,0,1,1.05-25.849,106.44,106.44,0,0,0-13.694-6.157q-2.1-.789-4.091-1.609c-50.843-20.966-47.678-57.028-47.251-60.482C73.841,200.224,71.12,254.26,71.12,254.26" transform="translate(-71.12 -160.438)" fill="#82b378"/>
            </g>
          </g>
        </g>
        <path id="Path_3146" data-name="Path 3146" d="M187.829,15.835l-.208.005c-.591.01-14.636.378-32.33,9.658A101.437,101.437,0,0,0,127.208,47.47a116.777,116.777,0,0,0-9.061,11.4,134.065,134.065,0,0,0-8.879,14.639q-2.154,4.107-4.106,8.465c-.114.259-.231.518-.343.776q-1.477,3.346-2.832,6.831a207.975,207.975,0,0,0-9.239,30.186c-.332,1.566-.632,3.134-.893,4.692-.18,1.056-.34,2.106-.48,3.144a64.642,64.642,0,0,0-.606,7.711c-.018,1.287.018,2.53.114,3.717l0,.02.617,6.166.132,1.322.2,1.967.2,2,.071.71.091.914,49.788-3.025,4.111-.249.475-.028,2.695-.165,2.69-.162h.013l10.005-.609-.3-1.332a92.734,92.734,0,0,1,.566-34.941c.094-.467.193-.934.3-1.406q.468-2.154,1.066-4.367c.307-1.137.639-2.286,1-3.441q.582-1.854,1.241-3.672c.053-.147.107-.3.162-.444a86.864,86.864,0,0,1,7.529-15.537c.16-.261.322-.52.485-.779a87.38,87.38,0,0,1,6.054-8.465q1.188-1.473,2.451-2.905,2.093-2.383,4.38-4.641,2.851-2.82,6-5.451l.028-.023A112.246,112.246,0,0,1,210.567,48.5c.546-.3,1.1-.6,1.654-.9l.013-.008.015-.008A153.558,153.558,0,0,1,239.837,36.31l3.393-1.035Zm41.9,21.417a145.489,145.489,0,0,0-20.754,9.467,109.4,109.4,0,0,0-23.761,17.638q-1.382,1.37-2.695,2.781-2.874,3.083-5.42,6.369a89.315,89.315,0,0,0-14.253,26.761c-.119.348-.231.7-.34,1.048-.056.165-.109.33-.16.5-.7,2.228-1.289,4.423-1.789,6.57q-.266,1.13-.495,2.241v0c-.18.86-.345,1.708-.5,2.55A101.2,101.2,0,0,0,158,133.588a83.487,83.487,0,0,0,1.139,12.147l-10.206.619-2.682.162-.573.036-4.022.244-14.664.893h-.018l-32.688,1.984-.3-3.058-.776-7.783q-.133-1.637-.1-3.519a81.471,81.471,0,0,1,2.048-15.547c.779-3.616,1.776-7.508,2.989-11.64,2.888-9.846,5.983-17.618,6.016-17.694q1.526-3.932,3.21-7.681.152-.343.312-.685,2-4.411,4.227-8.559,3.106-5.808,6.628-11.079A115.812,115.812,0,0,1,128.872,49.1,99.1,99.1,0,0,1,156.26,27.619a85.484,85.484,0,0,1,26.263-8.9,18.1,18.1,0,0,1,8.785.8l38.4,13.472a2.262,2.262,0,0,1,.025,4.258" transform="translate(-67.733 -11.817)" fill="#82b378"/>
        <path id="Path_3147" data-name="Path 3147" d="M231.358,173.6c.475,11.5,7.5,18.177,19.006,17.7s23.129-7.919,22.654-19.423-7.132-18.121-18.636-17.646-23.5,7.863-23.025,19.368" transform="translate(-172.64 -115.077)" fill="#82b378"/>
        <path id="Path_3148" data-name="Path 3148" d="M215.307,246.223v92.545q-2.208,1.355-4.5,2.6-1.758.955-3.563,1.842-2.737,1.344-5.582,2.535-.472.2-.952.4-.83.339-1.67.662-1.214.472-2.446.916-2.729.986-5.56,1.832c-.667.2-1.34.4-2.015.584q-3.9,1.1-7.973,1.934A41.527,41.527,0,0,1,174.7,353.2a138.679,138.679,0,0,1-15.37,1.469c-.865.038-1.738.066-2.614.086q-1.915.05-3.865.048-2.341,0-4.707-.053a217.725,217.725,0,0,1-40.194-4.659q-1.5-.32-2.992-.66a169.332,169.332,0,0,1-33.32-11.155c-.261-.119-.52-.241-.776-.363q-3.867-1.823-7.516-3.852V246.223a3.117,3.117,0,0,1,3.108-3.108H212.2c.117,0,.231.008.343.018a3.123,3.123,0,0,1,2.768,3.091" transform="translate(-47.276 -181.424)" fill="#223265"/>
        <path id="Path_3149" data-name="Path 3149" d="M88.707,276.475H86.116a.39.39,0,0,0,0,.779h2.591a.39.39,0,0,0,0-.779m7.719,0H93.835a.39.39,0,0,0,0,.779h2.591a.39.39,0,1,0,0-.779m-3.895,0H89.941a.39.39,0,0,0,0,.779h2.591a.39.39,0,1,0,0-.779m9.327.094a.381.381,0,0,0-.249-.094H99.019a.388.388,0,0,0-.015.776.032.032,0,0,0,.015,0h2.591a.39.39,0,0,0,.388-.391.373.373,0,0,0-.14-.294m4.933-.094H104.2a.39.39,0,0,0,0,.779h2.591a.39.39,0,0,0,0-.779m5.182,0h-2.591a.39.39,0,0,0,0,.779h2.591a.39.39,0,0,0,0-.779m5.182,0h-2.591a.39.39,0,0,0,0,.779h2.591a.39.39,0,0,0,0-.779m5.182,0h-2.591a.39.39,0,0,0,0,.779h2.591a.39.39,0,1,0,0-.779m5.184,0h-2.593a.392.392,0,0,0-.388.388.39.39,0,0,0,.388.391h2.593a.39.39,0,0,0,0-.779m5.182,0h-2.591a.39.39,0,0,0,0,.779H132.7a.39.39,0,0,0,0-.779m5.182,0h-2.591a.39.39,0,0,0,0,.779h2.591a.39.39,0,0,0,0-.779m5.182,0h-2.591a.39.39,0,0,0,0,.779h2.591a.39.39,0,0,0,0-.779m5.181,0h-2.591a.39.39,0,0,0,0,.779h2.591a.39.39,0,1,0,0-.779m5.184,0h-2.594a.39.39,0,0,0,0,.779h2.594a.39.39,0,0,0,0-.779m5.182,0h-2.591a.389.389,0,0,0-.388.353v0a.145.145,0,0,0,0,.033.391.391,0,0,0,.391.391h2.591a.39.39,0,0,0,0-.779m5.181,0H161.2a.39.39,0,0,0,0,.779h2.591a.39.39,0,0,0,0-.779m5.182,0h-2.591a.39.39,0,0,0,0,.779h2.591a.39.39,0,0,0,0-.779m5.182,0h-2.591a.39.39,0,0,0,0,.779h2.591a.39.39,0,0,0,0-.779m5.182,0h-2.591a.127.127,0,0,0-.043.005.387.387,0,0,0,0,.769.127.127,0,0,0,.043.005h2.591a.39.39,0,1,0,0-.779m5.184,0h-2.591a.39.39,0,1,0,0,.779h2.591a.39.39,0,0,0,0-.779m5.182,0h-2.591a.39.39,0,0,0,0,.779H189.7a.39.39,0,0,0,0-.779m5.182,0H192.3a.39.39,0,0,0,0,.779h2.591a.39.39,0,0,0,0-.779m5.182,0h-2.591a.39.39,0,0,0,0,.779h2.591a.39.39,0,0,0,0-.779m5.182,0h-2.591a.39.39,0,0,0,0,.779h2.591a.39.39,0,1,0,0-.779m5.184,0h-2.591a.39.39,0,1,0,0,.779h2.591a.39.39,0,0,0,0-.779m10.257,0H218.1a.39.39,0,0,0,0,.779h2.591a.39.39,0,0,0,0-.779m-5.161,0h-2.591a.39.39,0,0,0,0,.779h2.591a.39.39,0,0,0,0-.779m7.718,1.231a.389.389,0,0,0-.619.469,2.3,2.3,0,0,1,.475,1.4v.832a.388.388,0,1,0,.776,0v-.832a3.063,3.063,0,0,0-.632-1.87m-139.132-.043a.392.392,0,0,0-.545.084,3.084,3.084,0,0,0-.6,1.83v.878a.388.388,0,1,0,.776,0v-.878a2.288,2.288,0,0,1,.449-1.368.391.391,0,0,0-.081-.546m139.375,4.948a.389.389,0,0,0-.388.391v2.591a.388.388,0,1,0,.776,0V283a.389.389,0,0,0-.388-.391m-140.131.046a.388.388,0,0,0-.388.388v2.593a.388.388,0,0,0,.776,0v-2.593a.39.39,0,0,0-.388-.388m140.131,5.138a.387.387,0,0,0-.388.388v2.591a.388.388,0,1,0,.776,0v-2.591a.387.387,0,0,0-.388-.388M83.36,287.84a.387.387,0,0,0-.388.388v2.591a.388.388,0,1,0,.776,0v-2.591a.388.388,0,0,0-.388-.388m140.131,5.136a.387.387,0,0,0-.388.388v2.591a.388.388,0,1,0,.776,0v-2.591a.387.387,0,0,0-.388-.388m-140.131.046a.386.386,0,0,0-.388.388V296a.388.388,0,0,0,.776,0V293.41a.388.388,0,0,0-.388-.388m140.131,5.136a.365.365,0,0,0-.107.015.388.388,0,0,0-.281.373v2.591a.388.388,0,0,0,.281.373.364.364,0,0,0,.107.015.387.387,0,0,0,.388-.388v-2.591a.388.388,0,0,0-.388-.388M83.36,298.2a.386.386,0,0,0-.388.388v2.591a.388.388,0,1,0,.776,0v-2.591a.388.388,0,0,0-.388-.388m140.131,5.136a.363.363,0,0,0-.107.015.388.388,0,0,0-.281.373v2.591a.391.391,0,0,0,.281.376.363.363,0,0,0,.107.015.389.389,0,0,0,.388-.391v-2.591a.388.388,0,0,0-.388-.388m-140.131.046a.388.388,0,0,0-.388.388v2.591a.4.4,0,0,0,.388.391.39.39,0,0,0,.388-.391v-2.591a.39.39,0,0,0-.388-.388m140.131,5.136a.388.388,0,0,0-.388.388V311.5a.388.388,0,1,0,.776,0v-2.593a.388.388,0,0,0-.388-.388m-140.131.046a.388.388,0,0,0-.388.388v2.593a.388.388,0,1,0,.776,0v-2.593a.39.39,0,0,0-.388-.388m140.131,5.138a.387.387,0,0,0-.388.388v2.591a.388.388,0,1,0,.776,0v-2.591a.387.387,0,0,0-.388-.388m-140.131.043a.389.389,0,0,0-.388.391v2.591a.388.388,0,1,0,.776,0v-2.591a.39.39,0,0,0-.388-.391m140.131,5.138a.387.387,0,0,0-.388.388v2.591a.388.388,0,1,0,.776,0v-2.591a.387.387,0,0,0-.388-.388M83.5,318.96a.374.374,0,0,0-.142-.028.386.386,0,0,0-.388.388v2.591a.379.379,0,0,0,.05.193.389.389,0,0,0,.726-.193v-2.591a.385.385,0,0,0-.246-.36m139.989,5.108a.387.387,0,0,0-.388.388v2.591a.382.382,0,0,0,.246.36h0a.371.371,0,0,0,.14.028.387.387,0,0,0,.388-.388v-2.591a.387.387,0,0,0-.388-.388m-140.131.046a.386.386,0,0,0-.388.388v2.591a.388.388,0,1,0,.776,0V324.5a.388.388,0,0,0-.388-.388m140.131,5.136a.388.388,0,0,0-.388.388v2.591a.388.388,0,1,0,.776,0v-2.591a.388.388,0,0,0-.388-.388M83.36,329.3a.388.388,0,0,0-.388.388v2.591a.388.388,0,1,0,.776,0v-2.591a.39.39,0,0,0-.388-.388m140.514,5.468a.372.372,0,0,0-.124-.231.381.381,0,0,0-.518,0,.373.373,0,0,0-.125.231.459.459,0,0,0,0,.056v2.593a.388.388,0,0,0,.776,0V334.82a.416.416,0,0,0-.005-.056M83.36,334.477a.388.388,0,0,0-.388.388v2.593a.388.388,0,0,0,.776,0v-2.593a.39.39,0,0,0-.388-.388m140.131,5.136a.389.389,0,0,0-.388.391v2.591a.388.388,0,1,0,.776,0V340a.389.389,0,0,0-.388-.391m-140.131.046a.385.385,0,0,0-.388.391v2.591a.388.388,0,0,0,.388.388.35.35,0,0,0,.116-.02.385.385,0,0,0,.272-.368V340.05a.39.39,0,0,0-.388-.391M223.491,344.8a.387.387,0,0,0-.388.388v2.591a.388.388,0,1,0,.776,0v-2.591a.387.387,0,0,0-.388-.388m-139.814.211a.388.388,0,0,0-.705.223v2.591a.388.388,0,0,0,.776,0v-2.591a.378.378,0,0,0-.071-.223m139.814,4.971a.387.387,0,0,0-.388.388v2.591a.293.293,0,0,0,.02.117.019.019,0,0,0,.005.015.371.371,0,0,0,.256.241.363.363,0,0,0,.107.015.38.38,0,0,0,.363-.256.019.019,0,0,0,0-.015.293.293,0,0,0,.021-.117v-2.591a.387.387,0,0,0-.388-.388m-140.131.046a.386.386,0,0,0-.388.388V353a.388.388,0,1,0,.776,0v-2.591a.388.388,0,0,0-.388-.388m140.131,5.136a.363.363,0,0,0-.107.015.387.387,0,0,0-.281.373v2.591a.388.388,0,0,0,.281.373.363.363,0,0,0,.107.015.387.387,0,0,0,.388-.388v-2.591a.388.388,0,0,0-.388-.388m-140.131.046a.388.388,0,0,0-.388.388v2.591a.388.388,0,1,0,.776,0v-2.591a.39.39,0,0,0-.388-.388m0,5.513a.388.388,0,0,0-.388.388V363.7a.388.388,0,0,0,.776,0v-2.591a.39.39,0,0,0-.388-.388m0,6.154a.388.388,0,0,0-.388.388v2.591a.388.388,0,1,0,.776,0v-2.591a.39.39,0,0,0-.388-.388m0,4.066c-.216,0-.388.1-.388.227v1.515c0,.126.172.227.388.227s.388-.1.388-.227v-1.515c0-.125-.175-.227-.388-.227m140.131-10.6a.364.364,0,0,0-.107.015.388.388,0,0,0-.281.373v2.591a.388.388,0,1,0,.776,0V360.73a.388.388,0,0,0-.388-.388m-140.131.046a.388.388,0,0,0-.388.388v2.035c.256.122.515.244.776.363v-2.4a.39.39,0,0,0-.388-.388m140.509,5.44a.388.388,0,0,0-.766.086v2.591a.388.388,0,1,0,.776,0v-2.591a.312.312,0,0,0-.01-.086m0,4.039a.388.388,0,0,0-.766.086v2.591a.388.388,0,1,0,.776,0v-2.591a.312.312,0,0,0-.01-.086m-101.442,4.386h-2.591a.382.382,0,0,0-.231.076q1.492.343,2.992.66a.382.382,0,0,0,.218-.348.387.387,0,0,0-.388-.388m5.182,0h-2.591a.388.388,0,0,0,0,.776h2.591a.388.388,0,1,0,0-.776m-5.1,0h-2.591a.388.388,0,1,0,0,.776h2.591a.388.388,0,1,0,0-.776m-36.555,0H83.36a.388.388,0,1,0,0,.776h2.591a.388.388,0,1,0,0-.776m4.648,0H88.008a.388.388,0,0,0,0,.776H90.6a.388.388,0,1,0,0-.776m8.756,0H96.764a.388.388,0,1,0,0,.776h2.591a.388.388,0,1,0,0-.776m-4.263,0H92.5a.388.388,0,1,0,0,.776h2.591a.388.388,0,1,0,0-.776m9.071,0h-2.591a.388.388,0,1,0,0,.776h2.591a.388.388,0,1,0,0-.776m5.193,0h-2.591a.388.388,0,1,0,0,.776h2.591a.388.388,0,0,0,0-.776m5.193,0h-2.591a.388.388,0,0,0,0,.776h2.591a.388.388,0,1,0,0-.776m3.975,0h-2.591a.388.388,0,0,0,0,.776h2.591a.388.388,0,1,0,0-.776m14.269,0H130.2a.388.388,0,1,0,0,.776h2.591a.388.388,0,1,0,0-.776m5.184,0h-2.593a.388.388,0,1,0,0,.776h2.593a.388.388,0,1,0,0-.776m5.182,0h-2.591a.388.388,0,1,0,0,.776h2.591a.388.388,0,1,0,0-.776m5.182,0h-2.591a.388.388,0,0,0,0,.776h2.591a.388.388,0,1,0,0-.776m5.182,0h-2.591a.388.388,0,1,0,0,.776h2.591a.388.388,0,1,0,0-.776m5.182,0H156.11a.388.388,0,1,0,0,.776H158.7a.388.388,0,0,0,0-.776m5.184,0h-2.593a.384.384,0,0,0-.257.1.377.377,0,0,0-.132.289.388.388,0,0,0,.388.388h2.593a.388.388,0,1,0,0-.776m5.182,0h-2.591a.388.388,0,1,0,0,.776h2.591a.388.388,0,1,0,0-.776m5.182,0h-2.591a.388.388,0,1,0,0,.776h2.591a.388.388,0,0,0,0-.776m5.182,0h-2.591a.388.388,0,1,0,0,.776h2.591a.388.388,0,1,0,0-.776m5.182,0h-2.591a.388.388,0,1,0,0,.776h2.591a.388.388,0,1,0,0-.776m5.181,0H187.2a.388.388,0,1,0,0,.776h2.591a.388.388,0,1,0,0-.776m5.184,0h-2.591a.388.388,0,1,0,0,.776h2.591a.388.388,0,1,0,0-.776m5.182,0h-2.591a.388.388,0,1,0,0,.776h2.591a.388.388,0,0,0,0-.776m10.942,0H208.51a.388.388,0,1,0,0,.776H211.1a.388.388,0,1,0,0-.776m6.945,0h-2.591a.388.388,0,1,0,0,.776h2.591a.388.388,0,0,0,0-.776m5.682,0h-2.591a.388.388,0,0,0,0,.776h2.591a.388.388,0,1,0,0-.776m-18.387,0H202.75a.384.384,0,0,0-.386.36.105.105,0,0,0,0,.028.387.387,0,0,0,.388.388h.911c.675-.188,1.347-.381,2.015-.584a.381.381,0,0,0-.335-.193" transform="translate(-61.918 -206.319)" fill="#ed7d2b"/>
        <path id="Path_3150" data-name="Path 3150" d="M29.265,440.96H5.972A5.99,5.99,0,0,1,0,434.988v-3.6a5.99,5.99,0,0,1,5.973-5.973H29.265a5.99,5.99,0,0,1,5.973,5.973v3.6a5.99,5.99,0,0,1-5.973,5.972" transform="translate(0.001 -317.465)" fill="#ed7d2b"/>
        <path id="Path_3151" data-name="Path 3151" d="M403.5,356.959c0,.079,0,.155-.005.231a49.254,49.254,0,0,1-1.086,9.016c0,.018-.008.036-.01.053s0,.008,0,.013q-.335,1.557-.774,3.086a48.879,48.879,0,0,1-2.195,6.143.019.019,0,0,1-.005.015,49,49,0,0,1-3.905,7.278q-.666,1.028-1.388,2.02c-.964,1.337-2.085,1.893-3.194,3.136-1.172.637-2.279,1.989-3.482,2.581q-2.737,1.344-5.583,2.535-.471.2-.952.4-.83.339-1.67.662-1.214.472-2.446.916-2.729.986-5.56,1.832c-.667.2-1.34.4-2.015.584q-3.9,1.1-7.973,1.934a41.531,41.531,0,0,1-6.342,1.134,138.678,138.678,0,0,1-15.37,1.469c-.865.038-1.738.066-2.614.086a49.171,49.171,0,0,1-9.29-4.623c-.35-.218-.7-.447-1.038-.678a49.488,49.488,0,0,1-20.759-30.993c-.038-.183-.076-.365-.109-.551q-.171-.875-.307-1.753a49.465,49.465,0,0,1,9.967-38.118,48.717,48.717,0,0,1,6.864-7.118q1.6-1.355,3.332-2.583,1.412-1.009,2.913-1.918c.005,0,.008-.005.013-.005q.506-.312,1.025-.609.407-.236.822-.464a49.422,49.422,0,0,1,6.948-3.162,48.461,48.461,0,0,1,4.961-1.522,49.318,49.318,0,0,1,32.137,2.9q1.191.533,2.357,1.132.48.244.952.5,1.2.647,2.36,1.365,1.8,1.108,3.517,2.38c.261.19.52.388.776.586.467.36.929.733,1.385,1.114q.48.4.952.812.78.685,1.538,1.406l.015.015a48.851,48.851,0,0,1,3.654,3.9c.325.383.642.776.952,1.172q1.4,1.77,2.649,3.692c.069.107.137.213.2.32.048.071.094.142.134.213.157.244.31.487.457.733q.552.9,1.066,1.835a49.9,49.9,0,0,1,3,6.514.036.036,0,0,1,.005.015,48.937,48.937,0,0,1,3.116,18.379" transform="translate(-227.489 -228.745)" fill="#ed7d2b"/>
        <path id="Path_3152" data-name="Path 3152" d="M387.955,372.32c0,.023-.008.046-.01.066a49.449,49.449,0,0,1-2.527,9.229.04.04,0,0,1,0,.015q-.457,1.207-.98,2.388a48.68,48.68,0,0,1-2.649,5.156q-.461.784-.951,1.545c-.043.071-.089.14-.135.208a48.6,48.6,0,0,1-4.329,5.717q-2.737,1.344-5.582,2.535-.472.2-.952.4-.83.339-1.67.662-1.214.472-2.446.916-2.729.986-5.56,1.832c-.667.2-1.34.4-2.015.584q-3.9,1.1-7.973,1.934a41.53,41.53,0,0,1-6.341,1.134,138.679,138.679,0,0,1-15.37,1.469c-.865.038-1.738.066-2.614.086q-1.915.05-3.865.048-2.341,0-4.707-.053a49.42,49.42,0,0,1-26.626-36.04c-.053-.31-.1-.622-.145-.934q-.1-.685-.183-1.375a49.284,49.284,0,0,1,20.155-45.8c.343-.246.688-.487,1.038-.726q1.527-1.043,3.154-1.979c.277-.162.558-.32.84-.475.632-.35,1.271-.683,1.911-1,.005,0,.008-.005.013-.005.325-.162.65-.32.977-.474.3-.137.594-.274.891-.406a48.965,48.965,0,0,1,5.874-2.18c.188-.056.376-.112.563-.165a48.369,48.369,0,0,1,5.451-1.236q1.458-.247,2.918-.4a49.333,49.333,0,0,1,19.978,2q1.808.567,3.57,1.271c.32.127.637.256.952.393q1.229.518,2.431,1.106a48.809,48.809,0,0,1,4.646,2.593q.479.3.952.617a48.186,48.186,0,0,1,4.438,3.316l.018.015c.251.211.5.426.751.645.223.2.449.4.67.6.094.086.188.173.281.261.165.152.33.307.495.462q1.39,1.317,2.685,2.758a48.989,48.989,0,0,1,3.5,4.359.055.055,0,0,1,.01.013v0l0,0c.046.066.094.129.137.2a49.582,49.582,0,0,1,2.906,4.646q.952,1.728,1.751,3.5c.053.117.107.233.157.35.086.2.173.393.256.589l.008.015q.521,1.222.974,2.456c.35.952.665,1.908.952,2.87q.59,1.975,1,3.971a48.7,48.7,0,0,1,.8,5.245c.127,1.279.2,2.56.223,3.837,0,.079.005.155.005.231a49.3,49.3,0,0,1-.7,9.016" transform="translate(-216.402 -234.859)" fill="#ffb93e"/>
        <path id="Path_3153" data-name="Path 3153" d="M389.423,362.729A49.518,49.518,0,1,1,339.9,313.211a49.518,49.518,0,0,1,49.518,49.518" transform="translate(-216.701 -233.734)" fill="#ffb93e"/>
        <circle id="Ellipse_282" data-name="Ellipse 282" cx="43.291" cy="43.291" r="43.291" transform="translate(79.913 85.704)" fill="none" stroke="#ffa412" stroke-miterlimit="10" stroke-width="12"/>
        <path id="Path_3154" data-name="Path 3154" d="M11.6,444.5a3.671,3.671,0,1,1,3.671,3.671A3.671,3.671,0,0,1,11.6,444.5" transform="translate(-8.656 -328.965)" fill="#223265"/>
        <path id="Path_3155" data-name="Path 3155" d="M411.625,421.154l-1.612.39-14.126,3.417c-1.788.432-2.134.2-2.569-1.586l-.612-2.53c-.309-1.382-.035-1.852,1.347-2.19q6.954-1.7,13.915-3.366l1.329-.322a6.239,6.239,0,0,0-3.217-2.06,13.621,13.621,0,0,0-6.65-.044c-2.159.45-4.293,1.013-6.441,1.511-1.293.313-1.828-.009-2.154-1.277q-.543-2.1-1.021-4.219c-.283-1.263.012-1.75,1.248-2.049l31.1-7.523c1.207-.292,1.669-.009,1.978,1.174q.422,1.626.793,3.278c.257,1.152-.01,1.6-1.156,1.885l-8.5,2.057c.538.58,1.026,1.032,1.425,1.548a15.93,15.93,0,0,1,1.722,2.479c.4.8.845.884,1.625.667,1.637-.456,3.295-.825,4.955-1.2,1.371-.331,1.832-.03,2.191,1.363.239.986.494,1.965.714,2.953.277,1.261,0,1.738-1.25,2.056-1.961.5-3.93.951-5.977,1.446.334,8.814-4.623,13.8-12.272,16.953.3.243.534.423.776.6l21.173,15.323c.566.409,1.28.87.9,1.63a2.453,2.453,0,0,1-1.429,1.068c-2.157.6-4.34,1.135-6.534,1.58a2.553,2.553,0,0,1-1.778-.362q-11.852-8.317-23.629-16.741a3.412,3.412,0,0,1-1.129-1.619c-.4-1.2-.636-2.448-.922-3.682-.353-1.46-.021-1.887,1.461-2.318,2.742-.78,5.519-1.477,8.179-2.474a9.031,9.031,0,0,0,5.16-4.563,24.982,24.982,0,0,0,1-3.217" transform="translate(-290.825 -297.903)" fill="#ffa412"/>
      </g>
    </g>
  </g>
</svg>
