<svg xmlns="http://www.w3.org/2000/svg" viewBox="0 0 23.96 23.96"><defs><style>.cls-1{fill:#010101;}.cls-2{fill:none;stroke:#000;stroke-miterlimit:10;}</style></defs><g id="Layer_2" data-name="Layer 2"><g id="Layer_1-2" data-name="Layer 1"><path class="cls-1" d="M11.41,16a1.14,1.14,0,0,1-.8-.35,1.09,1.09,0,0,1-.36-.79V9.94a1.2,1.2,0,0,1,.07-.46,1.29,1.29,0,0,1,.3-.38L13.92,6l.7.53a.56.56,0,0,1,.15.25,1.06,1.06,0,0,1,.06.37v0l-.53,2.21h3.52a1.1,1.1,0,0,1,.8.36,1.12,1.12,0,0,1,.35.78v.43a3.53,3.53,0,0,1,0,.36,1.35,1.35,0,0,0,0,.2l-1.61,3.6a1.18,1.18,0,0,1-.51.63A1.35,1.35,0,0,1,16,16ZM7,16H9.49v-6H7Z"/><circle class="cls-2" cx="11.98" cy="11.98" r="11.48"/></g></g></svg>