<svg xmlns="http://www.w3.org/2000/svg" viewBox="0 0 23.96 23.96"><defs><style>.cls-1{fill:none;stroke:#000;stroke-miterlimit:10;}</style></defs><g id="Layer_2" data-name="Layer 2"><g id="Layer_1-2" data-name="Layer 1"><circle class="cls-1" cx="11.98" cy="11.98" r="11.48"/><path d="M8.72,16.72a1.51,1.51,0,0,1-1-.36,1.15,1.15,0,0,1,0-1.76,1.51,1.51,0,0,1,1-.36,1.32,1.32,0,0,1,.3,0l.27.08,1.06-1.15a2.12,2.12,0,0,1-.36-.57A1.28,1.28,0,0,1,9.93,12l-1.51-.45a1.23,1.23,0,0,1-.5.43,1.57,1.57,0,0,1-.7.15,1.51,1.51,0,0,1-1-.36A1.15,1.15,0,0,1,6.2,10a1.51,1.51,0,0,1,1-.36,1.49,1.49,0,0,1,1,.36,1.13,1.13,0,0,1,.41.88v0l1.53.46a1.6,1.6,0,0,1,.54-.53,2.31,2.31,0,0,1,.71-.26V9.16a1.39,1.39,0,0,1-.77-.47A1.14,1.14,0,0,1,10.37,8a1.1,1.1,0,0,1,.41-.88,1.6,1.6,0,0,1,2,0,1.11,1.11,0,0,1,.42.88,1.15,1.15,0,0,1-.29.73,1.43,1.43,0,0,1-.76.47v1.4a2.41,2.41,0,0,1,.71.26,1.54,1.54,0,0,1,.55.53l1.51-.46v0a1.13,1.13,0,0,1,.41-.88,1.51,1.51,0,0,1,1-.36,1.49,1.49,0,0,1,1,.36,1.15,1.15,0,0,1,0,1.76,1.49,1.49,0,0,1-1,.36,1.66,1.66,0,0,1-.72-.15,1.11,1.11,0,0,1-.48-.43L13.65,12a1.18,1.18,0,0,1-.05.67,1.6,1.6,0,0,1-.37.57l1.06,1.15.27-.08a1.42,1.42,0,0,1,.31,0,1.49,1.49,0,0,1,1,.36,1.15,1.15,0,0,1,0,1.76,1.49,1.49,0,0,1-1,.36,1.51,1.51,0,0,1-1-.36,1.13,1.13,0,0,1-.41-.88,1,1,0,0,1,.07-.39,1.63,1.63,0,0,1,.19-.34L12.64,13.6a2,2,0,0,1-.85.19,2.08,2.08,0,0,1-.86-.19l-1,1.16a1.28,1.28,0,0,1,.19.34.92.92,0,0,1,.07.38,1.13,1.13,0,0,1-.41.88A1.49,1.49,0,0,1,8.72,16.72Z"/></g></g></svg>