<svg xmlns="http://www.w3.org/2000/svg" viewBox="0 0 23.96 23.96"><defs><style>.cls-1{fill:none;stroke:#000;stroke-miterlimit:10;}.cls-2{fill:#010101;}</style></defs><g id="Layer_2" data-name="Layer 2"><g id="Layer_1-2" data-name="Layer 1"><circle class="cls-1" cx="11.98" cy="11.98" r="11.48"/><path class="cls-2" d="M11.41,17.43a.55.55,0,0,1-.39-.14.43.43,0,0,1-.18-.37.74.74,0,0,1,.06-.28.51.51,0,0,1,.16-.24l2.12-2-.28-.26-2.12,2a.58.58,0,0,1-.25.15.69.69,0,0,1-.28.05.57.57,0,0,1-.4-.15.49.49,0,0,1-.16-.37.74.74,0,0,1,.06-.28.52.52,0,0,1,.16-.22l2.12-2-.28-.27-2.12,2a.87.87,0,0,1-.25.15.71.71,0,0,1-.28.06.58.58,0,0,1-.4-.16.5.5,0,0,1-.17-.37.66.66,0,0,1,.06-.27.73.73,0,0,1,.16-.23l1.94-1.83-.28-.26L8.47,14a.7.7,0,0,1-.24.15.79.79,0,0,1-.29.06.54.54,0,0,1-.4-.15.47.47,0,0,1-.16-.37.7.7,0,0,1,.06-.27.79.79,0,0,1,.16-.23l3-2.79.94.87a1,1,0,0,0,.37.22,1.35,1.35,0,0,0,.46.07,1,1,0,0,0,.71-.26.87.87,0,0,0,.27-.67,1,1,0,0,0-.09-.4A1.54,1.54,0,0,0,13,9.83L11.64,8.59l.83-.77a1.19,1.19,0,0,1,.46-.28,1.51,1.51,0,0,1,1.13,0,1.23,1.23,0,0,1,.47.28l2.68,2.52a1.29,1.29,0,0,1,.28.42,1.38,1.38,0,0,1,0,1.08,1.29,1.29,0,0,1-.28.42l-5.27,5a.86.86,0,0,1-.25.14A.71.71,0,0,1,11.41,17.43ZM7,13.2l-.84-.8a1.48,1.48,0,0,1-.4-.6,1.86,1.86,0,0,1-.13-.68,1.74,1.74,0,0,1,.11-.61A1.23,1.23,0,0,1,6,10.08l2.4-2.26a1.36,1.36,0,0,1,.41-.28,1.12,1.12,0,0,1,.5-.11,1.27,1.27,0,0,1,.52.11,1.23,1.23,0,0,1,.43.28l2.42,2.27a.85.85,0,0,1,.17.25.74.74,0,0,1,.06.25.6.6,0,0,1-.15.42.62.62,0,0,1-.44.16.89.89,0,0,1-.3-.06.68.68,0,0,1-.26-.18L10.56,9.82Z"/></g></g></svg>