<svg xmlns="http://www.w3.org/2000/svg" xmlns:xlink="http://www.w3.org/1999/xlink" viewBox="0 0 29.05 32.43"><defs><style>.cls-1{fill:none;}.cls-2{clip-path:url(#clip-path);}.cls-3{fill:#5581c1;}.cls-4{fill:#4e73b9;}.cls-5{fill:#8aaddb;}.cls-6,.cls-9{fill:#fff;}.cls-7{fill:#fbcd22;}.cls-8{fill:#fbee37;}.cls-10,.cls-9{isolation:isolate;}.cls-9{opacity:0.2;}.cls-10{fill:#231f20;opacity:0.1;}.cls-11{opacity:0.3;}</style><clipPath id="clip-path" transform="translate(0 0)"><rect class="cls-1" width="24.02" height="32.02"/></clipPath></defs><g id="Layer_2" data-name="Layer 2"><g id="Layer_1-2" data-name="Layer 1"><g class="cls-2"><g id="Group_5347" data-name="Group 5347"><path id="Path_4431" data-name="Path 4431" class="cls-3" d="M24,8.38V29.19A2.83,2.83,0,0,1,21.18,32H2.84A2.84,2.84,0,0,1,0,29.19H0V2.83A2.84,2.84,0,0,1,2.84,0H16l8,8.06c0,.11,0,.21,0,.32" transform="translate(0 0)"/><path id="Path_4432" data-name="Path 4432" class="cls-4" d="M24,8.38V29.19A2.83,2.83,0,0,1,21.18,32H12V0h4l8,8.06c0,.11,0,.21,0,.32" transform="translate(0 0)"/><path id="Path_4433" data-name="Path 4433" class="cls-5" d="M24,8.38,17,8.3a1.89,1.89,0,0,1-.81-.41,1.8,1.8,0,0,1-.53-1c0-2.31,0-4.62,0-6.93H16l8,8.06c0,.11,0,.21,0,.32" transform="translate(0 0)"/><path id="Path_4434" data-name="Path 4434" class="cls-6" d="M17.74,14.22H6.27a.93.93,0,0,1,0-1.86H17.74a.93.93,0,1,1,0,1.86" transform="translate(0 0)"/><path id="Path_4435" data-name="Path 4435" class="cls-6" d="M17.74,18H6.27a.93.93,0,0,1,0-1.86H17.74a.93.93,0,0,1,0,1.86" transform="translate(0 0)"/><path id="Path_4436" data-name="Path 4436" class="cls-6" d="M17.74,21.67H6.27a.93.93,0,1,1,0-1.85H17.74a.93.93,0,1,1,0,1.85" transform="translate(0 0)"/><path id="Path_4437" data-name="Path 4437" class="cls-6" d="M13.69,25.4H6.27a.93.93,0,0,1,0-1.86H13.7a.93.93,0,0,1,0,1.86" transform="translate(0 0)"/></g></g><circle class="cls-7" cx="19.31" cy="22.69" r="9.74"/><path class="cls-8" d="M24.5,18.59l-.73.25-.56,1.66-.57-1.66L21,18.27l1.67-.57.2-.61a6.62,6.62,0,1,0,3.08,5.6A6.83,6.83,0,0,0,24.5,18.59Z" transform="translate(0 0)"/><path class="cls-9" d="M10.43,23.54a9.74,9.74,0,0,1,16.18-7.3A9.74,9.74,0,1,0,12.86,30,9.62,9.62,0,0,1,10.43,23.54Z" transform="translate(0 0)"/><path class="cls-10" d="M25.76,15.39a9.57,9.57,0,0,1,2.44,6.45A9.74,9.74,0,0,1,12,29.14,9.74,9.74,0,1,0,25.76,15.39Z" transform="translate(0 0)"/><g class="cls-11"><path class="cls-6" d="M25,14.78,11.4,28.33c-.12-.2-.28-.4-.41-.61h0L24.38,14.33h0Z" transform="translate(0 0)"/><path class="cls-6" d="M27.63,17.66,14.24,31.05a11.86,11.86,0,0,1-1.79-1.38L26.21,15.92A6.46,6.46,0,0,1,27.63,17.66Z" transform="translate(0 0)"/></g></g></g></svg>