<svg xmlns="http://www.w3.org/2000/svg" viewBox="0 0 40.24 32.43"><defs><style>.cls-1{fill:#54565d;}.cls-2{fill:#e7edf8;}.cls-3{fill:#7f838c;}.cls-4{fill:#ea214f;}.cls-5{fill:#95c943;}.cls-6{fill:#fddc45;}.cls-7{fill:#8f7fbb;}.cls-8{fill:#ab99c9;}</style></defs><g id="Layer_2" data-name="Layer 2"><g id="Layer_1-2" data-name="Layer 1"><path class="cls-1" d="M40.16,9.38H0c0-2.13-.09-4.22,0-6.3a3.34,3.34,0,0,1,3.1-3c.34,0,.68,0,1,0H36a3.71,3.71,0,0,1,3.47,1.54,3.44,3.44,0,0,1,.62,1.66C40.2,5.23,40.16,7.27,40.16,9.38ZM5.87,4.74A1.15,1.15,0,1,0,7.06,5.91,1.16,1.16,0,0,0,5.87,4.74Zm5.9,1.13A1.18,1.18,0,1,0,10.66,7,1.17,1.17,0,0,0,11.77,5.87ZM15.27,7A1.15,1.15,0,1,0,14.13,5.9,1.15,1.15,0,0,0,15.27,7Z"/><path class="cls-2" d="M.07,8.94V28.42c0,2.58,1.38,4,4,4H36.28c2.58,0,4-1.42,4-4V8.94Z"/><path class="cls-3" d="M28.4,23H22.76a1.32,1.32,0,0,1-1.38-.69,1.11,1.11,0,0,1,.75-1.59,4.17,4.17,0,0,1,.94-.07c3.55,0,7.1,0,10.65,0,.19,0,.37,0,.55,0,.79.06,1.29.54,1.26,1.21A1.17,1.17,0,0,1,34.27,23c-1.69,0-3.39,0-5.09,0Z"/><path class="cls-3" d="M28.33,27.72H23a4.1,4.1,0,0,1-.86-.06,1,1,0,0,1-.84-1.13,2.17,2.17,0,0,1,.84-1.07c.21-.15.61-.08.92-.08H34.19c.85,0,1.36.51,1.34,1.2a1.19,1.19,0,0,1-1.33,1.14c-1.25,0-2.51,0-3.76,0Z"/><path class="cls-4" d="M5.87,4.69A1.18,1.18,0,1,1,4.69,5.85,1.2,1.2,0,0,1,5.87,4.69Z"/><path class="cls-5" d="M11.8,5.85a1.2,1.2,0,0,1-2.4,0,1.2,1.2,0,0,1,2.4,0Z"/><path class="cls-6" d="M15.31,7.05a1.18,1.18,0,1,1,.07-2.36,1.18,1.18,0,1,1-.07,2.36Z"/><path class="cls-7" d="M4,27.72c-.39-4.19,2.3-7.53,6.36-7.78a14.46,14.46,0,0,1,4.83.36c3.13.91,4.89,3.94,4.57,7.42Z"/><path class="cls-8" d="M11.91,20.68a4.74,4.74,0,1,1,4.71-4.8A4.75,4.75,0,0,1,11.91,20.68Z"/><rect class="cls-3" x="21.27" y="11.58" width="14.26" height="6.74" rx="1.59"/></g></g></svg>