<svg xmlns="http://www.w3.org/2000/svg" viewBox="0 0 24 24"><defs><style>.cls-1{fill:#ce2027;}.cls-2{fill:#fff;}</style></defs><g id="Layer_2" data-name="Layer 2"><g id="Layer_1-2" data-name="Layer 1"><rect class="cls-1" width="24" height="24" rx="12"/><path class="cls-2" d="M16.52,12.36C15.57,9.9,12.19,9.76,13,6.18a.3.3,0,0,0-.45-.33,5.63,5.63,0,0,0-2.45,7.28.3.3,0,0,1-.45.36,3,3,0,0,1-1.12-2.87A.3.3,0,0,0,8,10.41a5.7,5.7,0,0,0-.83,3.17,4.86,4.86,0,0,0,4.12,4.56A5.15,5.15,0,0,0,15.48,17,4.17,4.17,0,0,0,16.52,12.36Zm-5.61,3A1.87,1.87,0,0,0,12.35,14c.2-.87-.58-1.71,0-3.08.2,1.13,2,1.84,2,3.07C14.32,15.53,12.67,16.84,10.91,15.4Z"/></g></g></svg>