<svg xmlns="http://www.w3.org/2000/svg" viewBox="0 0 38.85 32.43"><defs><style>.cls-1{fill:#425b99;}.cls-2{fill:#ffcb2b;}</style></defs><g id="Layer_2" data-name="Layer 2"><g id="Layer_1-2" data-name="Layer 1"><path class="cls-1" d="M16.2,17.86c0,.81,0,1.54,0,2.26a.84.84,0,0,0,1,1h4.47c.71,0,1-.35,1-1s0-1.4,0-2.19H35.06a4.34,4.34,0,0,0,2.45-.65c.69-.46,1.32-.1,1.32.74,0,3.79,0,7.58,0,11.37a3.23,3.23,0,0,1-3.15,3.09h-32A3.32,3.32,0,0,1,.08,29.85,3.73,3.73,0,0,1,0,29c0-3.62,0-7.23,0-10.84a1.33,1.33,0,0,1,.43-1c.24-.14.71.08,1.07.17a10.84,10.84,0,0,0,2.1.5c3.87.05,7.73,0,11.6,0Z"/><path class="cls-1" d="M11.35,4.88c0-.57,0-1,0-1.47A3.17,3.17,0,0,1,14.58,0c3.24,0,6.47-.06,9.71,0a3.17,3.17,0,0,1,3.2,3.33c0,.47,0,.94,0,1.51h7.72A3.3,3.3,0,0,1,38.84,8.5v4.32a3.23,3.23,0,0,1-3.37,3.4c-4,0-8.09,0-12.13,0l-.58,0a.63.63,0,0,1-.1-.15c-.11-1.4-.17-1.46-1.59-1.46H17.51c-1.08,0-1.26.17-1.31,1.26,0,.1,0,.19-.05.34l-.75,0c-4,0-7.94,0-11.91,0A3.25,3.25,0,0,1,0,12.72V8.39A3.28,3.28,0,0,1,3.5,4.88h7.85Zm3.27-1.54v1.5h9.6V3.34Z"/><rect class="cls-2" x="17.28" y="15.69" width="4.41" height="4.41" rx="0.46"/><rect class="cls-2" x="16.39" y="0.82" width="6.06" height="1.7" rx="0.46"/></g></g></svg>